<?xml version="1.0" encoding="UTF-8" standalone="no"?>
<!-- Created with Inkscape (http://www.inkscape.org/) -->

<svg
   width="297mm"
   height="210mm"
   viewBox="0 0 297 210"
   version="1.1"
   id="svg16918"
   inkscape:version="1.1 (c68e22c387, 2021-05-23)"
   sodipodi:docname="hopper_01.svg"
   xmlns:inkscape="http://www.inkscape.org/namespaces/inkscape"
   xmlns:sodipodi="http://sodipodi.sourceforge.net/DTD/sodipodi-0.dtd"
   xmlns="http://www.w3.org/2000/svg"
   xmlns:svg="http://www.w3.org/2000/svg">
  <sodipodi:namedview
     id="namedview16920"
     pagecolor="#ffffff"
     bordercolor="#666666"
     borderopacity="1.0"
     inkscape:pageshadow="2"
     inkscape:pageopacity="0.0"
     inkscape:pagecheckerboard="0"
     inkscape:document-units="mm"
     showgrid="false"
     inkscape:zoom="0.45948768"
     inkscape:cx="537.55521"
     inkscape:cy="568.02393"
     inkscape:window-width="1920"
     inkscape:window-height="1018"
     inkscape:window-x="-8"
     inkscape:window-y="-8"
     inkscape:window-maximized="1"
     inkscape:current-layer="layer3"
     inkscape:snap-grids="false" />
  <defs
     id="defs16915">
    <inkscape:path-effect
       effect="skeletal"
       id="path-effect17574"
       is_visible="true"
       lpeversion="1"
       pattern="m 50.315654,40.257602 a 6.930139,5.9501889 0 0 0 -5.813576,2.717504 6.930139,5.9501889 0 0 0 6.040735,3.040653 6.930139,5.9501889 0 0 0 5.815613,-2.72026 6.930139,5.9501889 0 0 0 -6.042772,-3.037897 z"
       copytype="single_stretched"
       prop_scale="0.154229"
       scale_y_rel="false"
       spacing="0"
       normal_offset="0"
       tang_offset="0"
       prop_units="false"
       vertical_pattern="false"
       hide_knot="false"
       fuse_tolerance="0" />
    <inkscape:path-effect
       effect="skeletal"
       id="path-effect17411"
       is_visible="true"
       lpeversion="1"
       pattern="m 53.294399,38.86791 a 6.930139,5.9501889 0 0 0 -5.813576,2.717504 6.930139,5.9501889 0 0 0 6.040735,3.040653 6.930139,5.9501889 0 0 0 5.815613,-2.72026 6.930139,5.9501889 0 0 0 -6.042772,-3.037897 z"
       copytype="single_stretched"
       prop_scale="0.154229"
       scale_y_rel="false"
       spacing="0"
       normal_offset="0"
       tang_offset="0"
       prop_units="false"
       vertical_pattern="false"
       hide_knot="false"
       fuse_tolerance="0" />
    <inkscape:path-effect
       effect="skeletal"
       id="path-effect17361"
       is_visible="true"
       lpeversion="1"
       pattern="m 53.294399,38.86791 a 6.930139,5.9501889 0 0 0 -5.813576,2.717504 6.930139,5.9501889 0 0 0 6.040735,3.040653 6.930139,5.9501889 0 0 0 5.815613,-2.72026 6.930139,5.9501889 0 0 0 -6.042772,-3.037897 z"
       copytype="single_stretched"
       prop_scale="0.154229"
       scale_y_rel="false"
       spacing="0"
       normal_offset="0"
       tang_offset="0"
       prop_units="false"
       vertical_pattern="false"
       hide_knot="false"
       fuse_tolerance="0" />
    <inkscape:path-effect
       effect="skeletal"
       id="path-effect17311"
       is_visible="true"
       lpeversion="1"
       pattern="m 53.294399,38.86791 a 6.930139,5.9501889 0 0 0 -5.813576,2.717504 6.930139,5.9501889 0 0 0 6.040735,3.040653 6.930139,5.9501889 0 0 0 5.815613,-2.72026 6.930139,5.9501889 0 0 0 -6.042772,-3.037897 z"
       copytype="single_stretched"
       prop_scale="0.154229"
       scale_y_rel="false"
       spacing="0"
       normal_offset="0"
       tang_offset="0"
       prop_units="false"
       vertical_pattern="false"
       hide_knot="false"
       fuse_tolerance="0" />
    <inkscape:path-effect
       effect="skeletal"
       id="path-effect17261"
       is_visible="true"
       lpeversion="1"
       pattern="m 53.294399,38.86791 a 6.930139,5.9501889 0 0 0 -5.813576,2.717504 6.930139,5.9501889 0 0 0 6.040735,3.040653 6.930139,5.9501889 0 0 0 5.815613,-2.72026 6.930139,5.9501889 0 0 0 -6.042772,-3.037897 z"
       copytype="single_stretched"
       prop_scale="0.154229"
       scale_y_rel="false"
       spacing="0"
       normal_offset="0"
       tang_offset="0"
       prop_units="false"
       vertical_pattern="false"
       hide_knot="false"
       fuse_tolerance="0" />
    <inkscape:path-effect
       effect="skeletal"
       id="path-effect17211"
       is_visible="true"
       lpeversion="1"
       pattern="m 53.294399,38.86791 a 6.930139,5.9501889 0 0 0 -5.813576,2.717504 6.930139,5.9501889 0 0 0 6.040735,3.040653 6.930139,5.9501889 0 0 0 5.815613,-2.72026 6.930139,5.9501889 0 0 0 -6.042772,-3.037897 z"
       copytype="single_stretched"
       prop_scale="0.154229"
       scale_y_rel="false"
       spacing="0"
       normal_offset="0"
       tang_offset="0"
       prop_units="false"
       vertical_pattern="false"
       hide_knot="false"
       fuse_tolerance="0" />
    <inkscape:path-effect
       effect="skeletal"
       id="path-effect17161"
       is_visible="true"
       lpeversion="1"
       pattern="m 53.294399,38.86791 a 6.930139,5.9501889 0 0 0 -5.813576,2.717504 6.930139,5.9501889 0 0 0 6.040735,3.040653 6.930139,5.9501889 0 0 0 5.815613,-2.72026 6.930139,5.9501889 0 0 0 -6.042772,-3.037897 z"
       copytype="single_stretched"
       prop_scale="0.154229"
       scale_y_rel="false"
       spacing="0"
       normal_offset="0"
       tang_offset="0"
       prop_units="false"
       vertical_pattern="false"
       hide_knot="false"
       fuse_tolerance="0" />
    <inkscape:path-effect
       effect="skeletal"
       id="path-effect16979"
       is_visible="true"
       lpeversion="1"
       pattern="m 53.294399,38.86791 a 6.930139,5.9501889 0 0 0 -5.813576,2.717504 6.930139,5.9501889 0 0 0 6.040735,3.040653 6.930139,5.9501889 0 0 0 5.815613,-2.72026 6.930139,5.9501889 0 0 0 -6.042772,-3.037897 z"
       copytype="single_stretched"
       prop_scale="0.15422869"
       scale_y_rel="false"
       spacing="0"
       normal_offset="0"
       tang_offset="0"
       prop_units="false"
       vertical_pattern="false"
       hide_knot="false"
       fuse_tolerance="0" />
    <inkscape:path-effect
       effect="skeletal"
       id="path-effect16736"
       is_visible="true"
       lpeversion="1"
       pattern="m 53.294399,38.86791 a 6.930139,5.9501889 0 0 0 -5.813576,2.717504 6.930139,5.9501889 0 0 0 6.040735,3.040653 6.930139,5.9501889 0 0 0 5.815613,-2.72026 6.930139,5.9501889 0 0 0 -6.042772,-3.037897 z"
       copytype="single_stretched"
       prop_scale="1"
       scale_y_rel="false"
       spacing="0"
       normal_offset="0"
       tang_offset="0"
       prop_units="false"
       vertical_pattern="false"
       hide_knot="false"
       fuse_tolerance="0" />
    <inkscape:path-effect
       effect="skeletal"
       id="path-effect13126"
       is_visible="true"
       lpeversion="1"
       pattern="m 53.294399,38.86791 a 6.930139,5.9501889 0 0 0 -5.813576,2.717504 6.930139,5.9501889 0 0 0 6.040735,3.040653 6.930139,5.9501889 0 0 0 5.815613,-2.72026 6.930139,5.9501889 0 0 0 -6.042772,-3.037897 z"
       copytype="single_stretched"
       prop_scale="0.40222"
       scale_y_rel="false"
       spacing="0"
       normal_offset="0"
       tang_offset="0"
       prop_units="false"
       vertical_pattern="false"
       hide_knot="false"
       fuse_tolerance="0" />
    <inkscape:path-effect
       effect="skeletal"
       id="path-effect13043"
       is_visible="true"
       lpeversion="1"
       pattern="m 53.294399,38.86791 a 6.930139,5.9501889 0 0 0 -5.813576,2.717504 6.930139,5.9501889 0 0 0 6.040735,3.040653 6.930139,5.9501889 0 0 0 5.815613,-2.72026 6.930139,5.9501889 0 0 0 -6.042772,-3.037897 z"
       copytype="single_stretched"
       prop_scale="0.40222"
       scale_y_rel="false"
       spacing="0"
       normal_offset="0"
       tang_offset="0"
       prop_units="false"
       vertical_pattern="false"
       hide_knot="false"
       fuse_tolerance="0" />
    <inkscape:path-effect
       effect="skeletal"
       id="path-effect12993"
       is_visible="true"
       lpeversion="1"
       pattern="m 53.294399,38.86791 a 6.930139,5.9501889 0 0 0 -5.813576,2.717504 6.930139,5.9501889 0 0 0 6.040735,3.040653 6.930139,5.9501889 0 0 0 5.815613,-2.72026 6.930139,5.9501889 0 0 0 -6.042772,-3.037897 z"
       copytype="single_stretched"
       prop_scale="0.40222"
       scale_y_rel="false"
       spacing="0"
       normal_offset="0"
       tang_offset="0"
       prop_units="false"
       vertical_pattern="false"
       hide_knot="false"
       fuse_tolerance="0" />
    <inkscape:path-effect
       effect="skeletal"
       id="path-effect12811"
       is_visible="true"
       lpeversion="1"
       pattern="m 53.294399,38.86791 a 6.930139,5.9501889 0 0 0 -5.813576,2.717504 6.930139,5.9501889 0 0 0 6.040735,3.040653 6.930139,5.9501889 0 0 0 5.815613,-2.72026 6.930139,5.9501889 0 0 0 -6.042772,-3.037897 z"
       copytype="single_stretched"
       prop_scale="0.40221952"
       scale_y_rel="false"
       spacing="0"
       normal_offset="0"
       tang_offset="0"
       prop_units="false"
       vertical_pattern="false"
       hide_knot="false"
       fuse_tolerance="0" />
    <inkscape:path-effect
       effect="skeletal"
       id="path-effect12166"
       is_visible="true"
       lpeversion="1"
       pattern="m 53.294399,38.86791 a 6.930139,5.9501889 0 0 0 -5.813576,2.717504 6.930139,5.9501889 0 0 0 6.040735,3.040653 6.930139,5.9501889 0 0 0 5.815613,-2.72026 6.930139,5.9501889 0 0 0 -6.042772,-3.037897 z"
       copytype="single_stretched"
       prop_scale="0.63240418"
       scale_y_rel="false"
       spacing="0"
       normal_offset="0"
       tang_offset="0"
       prop_units="false"
       vertical_pattern="false"
       hide_knot="false"
       fuse_tolerance="0" />
    <inkscape:path-effect
       effect="skeletal"
       id="path-effect12080"
       is_visible="true"
       lpeversion="1"
       pattern="m 53.294399,38.86791 a 6.930139,5.9501889 0 0 0 -5.813576,2.717504 6.930139,5.9501889 0 0 0 6.040735,3.040653 6.930139,5.9501889 0 0 0 5.815613,-2.72026 6.930139,5.9501889 0 0 0 -6.042772,-3.037897 z"
       copytype="single_stretched"
       prop_scale="0.32738"
       scale_y_rel="false"
       spacing="0"
       normal_offset="0"
       tang_offset="0"
       prop_units="false"
       vertical_pattern="false"
       hide_knot="false"
       fuse_tolerance="0" />
    <inkscape:path-effect
       effect="skeletal"
       id="path-effect12030"
       is_visible="true"
       lpeversion="1"
       pattern="m 53.294399,38.86791 a 6.930139,5.9501889 0 0 0 -5.813576,2.717504 6.930139,5.9501889 0 0 0 6.040735,3.040653 6.930139,5.9501889 0 0 0 5.815613,-2.72026 6.930139,5.9501889 0 0 0 -6.042772,-3.037897 z"
       copytype="single_stretched"
       prop_scale="0.56437428"
       scale_y_rel="false"
       spacing="0"
       normal_offset="0"
       tang_offset="0"
       prop_units="false"
       vertical_pattern="false"
       hide_knot="false"
       fuse_tolerance="0" />
    <inkscape:path-effect
       effect="skeletal"
       id="path-effect11980"
       is_visible="true"
       lpeversion="1"
       pattern="m 53.294399,38.86791 a 6.930139,5.9501889 0 0 0 -5.813576,2.717504 6.930139,5.9501889 0 0 0 6.040735,3.040653 6.930139,5.9501889 0 0 0 5.815613,-2.72026 6.930139,5.9501889 0 0 0 -6.042772,-3.037897 z"
       copytype="single_stretched"
       prop_scale="0.32738"
       scale_y_rel="false"
       spacing="0"
       normal_offset="0"
       tang_offset="0"
       prop_units="false"
       vertical_pattern="false"
       hide_knot="false"
       fuse_tolerance="0" />
    <inkscape:path-effect
       effect="skeletal"
       id="path-effect11529"
       is_visible="true"
       lpeversion="1"
       pattern="m 53.249,38.840781 a 6.930139,5.9501889 0 0 0 -5.81357,2.717504 6.930139,5.9501889 0 0 0 6.04073,3.040653 6.930139,5.9501889 0 0 0 5.81562,-2.72026 6.930139,5.9501889 0 0 0 -6.04278,-3.037897 z"
       copytype="single_stretched"
       prop_scale="0.32738"
       scale_y_rel="false"
       spacing="0"
       normal_offset="0"
       tang_offset="0"
       prop_units="false"
       vertical_pattern="false"
       hide_knot="false"
       fuse_tolerance="0" />
    <inkscape:path-effect
       effect="skeletal"
       id="path-effect11525"
       is_visible="true"
       lpeversion="1"
       pattern="m 53.249,38.840781 a 6.930139,5.9501889 0 0 0 -5.81357,2.717504 6.930139,5.9501889 0 0 0 6.04073,3.040653 6.930139,5.9501889 0 0 0 5.81562,-2.72026 6.930139,5.9501889 0 0 0 -6.04278,-3.037897 z"
       copytype="single_stretched"
       prop_scale="0.32738"
       scale_y_rel="false"
       spacing="0"
       normal_offset="0"
       tang_offset="0"
       prop_units="false"
       vertical_pattern="false"
       hide_knot="false"
       fuse_tolerance="0" />
    <inkscape:path-effect
       effect="skeletal"
       id="path-effect11352"
       is_visible="true"
       lpeversion="1"
       pattern="m 53.249,38.840781 a 6.930139,5.9501889 0 0 0 -5.81357,2.717504 6.930139,5.9501889 0 0 0 6.04073,3.040653 6.930139,5.9501889 0 0 0 5.81562,-2.72026 6.930139,5.9501889 0 0 0 -6.04278,-3.037897 z"
       copytype="single_stretched"
       prop_scale="0.32738"
       scale_y_rel="false"
       spacing="0"
       normal_offset="0"
       tang_offset="0"
       prop_units="false"
       vertical_pattern="false"
       hide_knot="false"
       fuse_tolerance="0" />
    <inkscape:path-effect
       effect="skeletal"
       id="path-effect11348"
       is_visible="true"
       lpeversion="1"
       pattern="m 53.249,38.840781 a 6.930139,5.9501889 0 0 0 -5.81357,2.717504 6.930139,5.9501889 0 0 0 6.04073,3.040653 6.930139,5.9501889 0 0 0 5.81562,-2.72026 6.930139,5.9501889 0 0 0 -6.04278,-3.037897 z"
       copytype="single_stretched"
       prop_scale="0.32738"
       scale_y_rel="false"
       spacing="0"
       normal_offset="0"
       tang_offset="0"
       prop_units="false"
       vertical_pattern="false"
       hide_knot="false"
       fuse_tolerance="0" />
    <inkscape:path-effect
       effect="skeletal"
       id="path-effect11100"
       is_visible="true"
       lpeversion="1"
       pattern="m 53.294399,38.86791 a 6.930139,5.9501889 0 0 0 -5.813576,2.717504 6.930139,5.9501889 0 0 0 6.040735,3.040653 6.930139,5.9501889 0 0 0 5.815613,-2.72026 6.930139,5.9501889 0 0 0 -6.042772,-3.037897 z"
       copytype="single_stretched"
       prop_scale="0.32738"
       scale_y_rel="false"
       spacing="0"
       normal_offset="0"
       tang_offset="0"
       prop_units="false"
       vertical_pattern="false"
       hide_knot="false"
       fuse_tolerance="0" />
    <inkscape:path-effect
       effect="skeletal"
       id="path-effect10770"
       is_visible="true"
       lpeversion="1"
       pattern="m 53.294399,38.86791 a 6.930139,5.9501889 0 0 0 -5.813576,2.717504 6.930139,5.9501889 0 0 0 6.040735,3.040653 6.930139,5.9501889 0 0 0 5.815613,-2.72026 6.930139,5.9501889 0 0 0 -6.042772,-3.037897 z"
       copytype="single_stretched"
       prop_scale="0.32738"
       scale_y_rel="false"
       spacing="0"
       normal_offset="0"
       tang_offset="0"
       prop_units="false"
       vertical_pattern="false"
       hide_knot="false"
       fuse_tolerance="0" />
    <inkscape:path-effect
       effect="skeletal"
       id="path-effect10580"
       is_visible="true"
       lpeversion="1"
       pattern="m 53.294399,38.86791 a 6.930139,5.9501889 0 0 0 -5.813576,2.717504 6.930139,5.9501889 0 0 0 6.040735,3.040653 6.930139,5.9501889 0 0 0 5.815613,-2.72026 6.930139,5.9501889 0 0 0 -6.042772,-3.037897 z"
       copytype="single_stretched"
       prop_scale="0.32738"
       scale_y_rel="false"
       spacing="0"
       normal_offset="0"
       tang_offset="0"
       prop_units="false"
       vertical_pattern="false"
       hide_knot="false"
       fuse_tolerance="0" />
    <inkscape:path-effect
       effect="skeletal"
       id="path-effect10494"
       is_visible="true"
       lpeversion="1"
       pattern="m 53.294399,38.86791 a 6.930139,5.9501889 0 0 0 -5.813576,2.717504 6.930139,5.9501889 0 0 0 6.040735,3.040653 6.930139,5.9501889 0 0 0 5.815613,-2.72026 6.930139,5.9501889 0 0 0 -6.042772,-3.037897 z"
       copytype="single_stretched"
       prop_scale="0.32738"
       scale_y_rel="false"
       spacing="0"
       normal_offset="0"
       tang_offset="0"
       prop_units="false"
       vertical_pattern="false"
       hide_knot="false"
       fuse_tolerance="0" />
    <inkscape:path-effect
       effect="skeletal"
       id="path-effect10444"
       is_visible="true"
       lpeversion="1"
       pattern="m 53.294399,38.86791 a 6.930139,5.9501889 0 0 0 -5.813576,2.717504 6.930139,5.9501889 0 0 0 6.040735,3.040653 6.930139,5.9501889 0 0 0 5.815613,-2.72026 6.930139,5.9501889 0 0 0 -6.042772,-3.037897 z"
       copytype="single_stretched"
       prop_scale="0.32738"
       scale_y_rel="false"
       spacing="0"
       normal_offset="0"
       tang_offset="0"
       prop_units="false"
       vertical_pattern="false"
       hide_knot="false"
       fuse_tolerance="0" />
    <inkscape:path-effect
       effect="skeletal"
       id="path-effect10304"
       is_visible="true"
       lpeversion="1"
       pattern="m 53.294399,38.86791 a 6.930139,5.9501889 0 0 0 -5.813576,2.717504 6.930139,5.9501889 0 0 0 6.040735,3.040653 6.930139,5.9501889 0 0 0 5.815613,-2.72026 6.930139,5.9501889 0 0 0 -6.042772,-3.037897 z"
       copytype="single_stretched"
       prop_scale="0.4342162"
       scale_y_rel="false"
       spacing="0"
       normal_offset="0"
       tang_offset="0"
       prop_units="false"
       vertical_pattern="false"
       hide_knot="false"
       fuse_tolerance="0" />
    <inkscape:path-effect
       effect="skeletal"
       id="path-effect10141"
       is_visible="true"
       lpeversion="1"
       pattern="m 53.274634,38.819819 a 6.930139,5.9501889 0 0 0 -5.813576,2.717504 6.930139,5.9501889 0 0 0 6.040735,3.040653 6.930139,5.9501889 0 0 0 5.815613,-2.72026 6.930139,5.9501889 0 0 0 -6.042772,-3.037897 z"
       copytype="single_stretched"
       prop_scale="0.32738"
       scale_y_rel="false"
       spacing="0"
       normal_offset="0"
       tang_offset="0"
       prop_units="false"
       vertical_pattern="false"
       hide_knot="false"
       fuse_tolerance="0" />
    <inkscape:path-effect
       effect="skeletal"
       id="path-effect9619"
       is_visible="true"
       lpeversion="1"
       pattern="m 53.294399,38.86791 a 6.930139,5.9501889 0 0 0 -5.813576,2.717504 6.930139,5.9501889 0 0 0 6.040735,3.040653 6.930139,5.9501889 0 0 0 5.815613,-2.72026 6.930139,5.9501889 0 0 0 -6.042772,-3.037897 z"
       copytype="single_stretched"
       prop_scale="0.46230389"
       scale_y_rel="false"
       spacing="0"
       normal_offset="0"
       tang_offset="0"
       prop_units="false"
       vertical_pattern="false"
       hide_knot="false"
       fuse_tolerance="0" />
    <inkscape:path-effect
       effect="skeletal"
       id="path-effect9569"
       is_visible="true"
       lpeversion="1"
       pattern="m 53.294399,38.86791 a 6.930139,5.9501889 0 0 0 -5.813576,2.717504 6.930139,5.9501889 0 0 0 6.040735,3.040653 6.930139,5.9501889 0 0 0 5.815613,-2.72026 6.930139,5.9501889 0 0 0 -6.042772,-3.037897 z"
       copytype="single_stretched"
       prop_scale="0.52814899"
       scale_y_rel="false"
       spacing="0"
       normal_offset="0"
       tang_offset="0"
       prop_units="false"
       vertical_pattern="false"
       hide_knot="false"
       fuse_tolerance="0" />
    <inkscape:path-effect
       effect="skeletal"
       id="path-effect9486"
       is_visible="true"
       lpeversion="1"
       pattern="m 53.294399,38.86791 a 6.930139,5.9501889 0 0 0 -5.813576,2.717504 6.930139,5.9501889 0 0 0 6.040735,3.040653 6.930139,5.9501889 0 0 0 5.815613,-2.72026 6.930139,5.9501889 0 0 0 -6.042772,-3.037897 z"
       copytype="single_stretched"
       prop_scale="0.54790543"
       scale_y_rel="false"
       spacing="0"
       normal_offset="0"
       tang_offset="0"
       prop_units="false"
       vertical_pattern="false"
       hide_knot="false"
       fuse_tolerance="0" />
    <inkscape:path-effect
       effect="skeletal"
       id="path-effect9436"
       is_visible="true"
       lpeversion="1"
       pattern="m 53.294399,38.86791 a 6.930139,5.9501889 0 0 0 -5.813576,2.717504 6.930139,5.9501889 0 0 0 6.040735,3.040653 6.930139,5.9501889 0 0 0 5.815613,-2.72026 6.930139,5.9501889 0 0 0 -6.042772,-3.037897 z"
       copytype="single_stretched"
       prop_scale="0.51461167"
       scale_y_rel="false"
       spacing="0"
       normal_offset="0"
       tang_offset="0"
       prop_units="false"
       vertical_pattern="false"
       hide_knot="false"
       fuse_tolerance="0" />
    <inkscape:path-effect
       effect="skeletal"
       id="path-effect9353"
       is_visible="true"
       lpeversion="1"
       pattern="m 53.294399,38.86791 a 6.930139,5.9501889 0 0 0 -5.813576,2.717504 6.930139,5.9501889 0 0 0 6.040735,3.040653 6.930139,5.9501889 0 0 0 5.815613,-2.72026 6.930139,5.9501889 0 0 0 -6.042772,-3.037897 z"
       copytype="single_stretched"
       prop_scale="0.55244862"
       scale_y_rel="false"
       spacing="0"
       normal_offset="0"
       tang_offset="0"
       prop_units="false"
       vertical_pattern="false"
       hide_knot="false"
       fuse_tolerance="0" />
    <inkscape:path-effect
       effect="skeletal"
       id="path-effect9303"
       is_visible="true"
       lpeversion="1"
       pattern="m 53.294399,38.86791 a 6.930139,5.9501889 0 0 0 -5.813576,2.717504 6.930139,5.9501889 0 0 0 6.040735,3.040653 6.930139,5.9501889 0 0 0 5.815613,-2.72026 6.930139,5.9501889 0 0 0 -6.042772,-3.037897 z"
       copytype="single_stretched"
       prop_scale="-0.65098406"
       scale_y_rel="false"
       spacing="0"
       normal_offset="0"
       tang_offset="0"
       prop_units="false"
       vertical_pattern="false"
       hide_knot="false"
       fuse_tolerance="0" />
    <inkscape:path-effect
       effect="skeletal"
       id="path-effect9253"
       is_visible="true"
       lpeversion="1"
       pattern="m 53.294399,38.86791 a 6.930139,5.9501889 0 0 0 -5.813576,2.717504 6.930139,5.9501889 0 0 0 6.040735,3.040653 6.930139,5.9501889 0 0 0 5.815613,-2.72026 6.930139,5.9501889 0 0 0 -6.042772,-3.037897 z"
       copytype="single_stretched"
       prop_scale="0.54977679"
       scale_y_rel="false"
       spacing="0"
       normal_offset="0"
       tang_offset="0"
       prop_units="false"
       vertical_pattern="false"
       hide_knot="false"
       fuse_tolerance="0" />
    <inkscape:path-effect
       effect="skeletal"
       id="path-effect9090"
       is_visible="true"
       lpeversion="1"
       pattern="m 55.698978,40.743322 a 6.930139,5.9501889 0 0 0 -5.813576,2.717504 6.930139,5.9501889 0 0 0 6.040735,3.040653 6.930139,5.9501889 0 0 0 5.815613,-2.72026 6.930139,5.9501889 0 0 0 -6.042772,-3.037897 z"
       copytype="single_stretched"
       prop_scale="0.32738"
       scale_y_rel="false"
       spacing="0"
       normal_offset="0"
       tang_offset="0"
       prop_units="false"
       vertical_pattern="false"
       hide_knot="false"
       fuse_tolerance="0" />
    <inkscape:path-effect
       effect="skeletal"
       id="path-effect8608"
       is_visible="true"
       lpeversion="1"
       pattern="m 56.372303,30.63665 a 6.930139,5.9501889 0 0 0 -5.813576,2.717504 6.930139,5.9501889 0 0 0 6.040735,3.040653 6.930139,5.9501889 0 0 0 5.815613,-2.72026 6.930139,5.9501889 0 0 0 -6.042772,-3.037897 z"
       copytype="single_stretched"
       prop_scale="0.32738"
       scale_y_rel="false"
       spacing="0"
       normal_offset="0"
       tang_offset="0"
       prop_units="false"
       vertical_pattern="false"
       hide_knot="false"
       fuse_tolerance="0" />
    <inkscape:path-effect
       effect="skeletal"
       id="path-effect8468"
       is_visible="true"
       lpeversion="1"
       pattern="m 53.294399,38.86791 a 6.930139,5.9501889 0 0 0 -5.813576,2.717504 6.930139,5.9501889 0 0 0 6.040735,3.040653 6.930139,5.9501889 0 0 0 5.815613,-2.72026 6.930139,5.9501889 0 0 0 -6.042772,-3.037897 z"
       copytype="single_stretched"
       prop_scale="0.32737998"
       scale_y_rel="false"
       spacing="0"
       normal_offset="0"
       tang_offset="0"
       prop_units="false"
       vertical_pattern="false"
       hide_knot="false"
       fuse_tolerance="0" />
    <inkscape:path-effect
       effect="skeletal"
       id="path-effect8418"
       is_visible="true"
       lpeversion="1"
       pattern="m 53.294399,38.86791 a 6.930139,5.9501889 0 0 0 -5.813576,2.717504 6.930139,5.9501889 0 0 0 6.040735,3.040653 6.930139,5.9501889 0 0 0 5.815613,-2.72026 6.930139,5.9501889 0 0 0 -6.042772,-3.037897 z"
       copytype="single_stretched"
       prop_scale="0.704346"
       scale_y_rel="false"
       spacing="0"
       normal_offset="0"
       tang_offset="0"
       prop_units="false"
       vertical_pattern="false"
       hide_knot="false"
       fuse_tolerance="0" />
    <inkscape:path-effect
       effect="skeletal"
       id="path-effect8055"
       is_visible="true"
       lpeversion="1"
       pattern="m 53.294399,38.86791 a 6.930139,5.9501889 0 0 0 -5.813576,2.717504 6.930139,5.9501889 0 0 0 6.040735,3.040653 6.930139,5.9501889 0 0 0 5.815613,-2.72026 6.930139,5.9501889 0 0 0 -6.042772,-3.037897 z"
       copytype="single_stretched"
       prop_scale="0.704346"
       scale_y_rel="false"
       spacing="0"
       normal_offset="0"
       tang_offset="0"
       prop_units="false"
       vertical_pattern="false"
       hide_knot="false"
       fuse_tolerance="0" />
    <inkscape:path-effect
       effect="skeletal"
       id="path-effect7812"
       is_visible="true"
       lpeversion="1"
       pattern="m 53.294399,38.86791 a 6.930139,5.9501889 0 0 0 -5.813576,2.717504 6.930139,5.9501889 0 0 0 6.040735,3.040653 6.930139,5.9501889 0 0 0 5.815613,-2.72026 6.930139,5.9501889 0 0 0 -6.042772,-3.037897 z"
       copytype="single_stretched"
       prop_scale="0.135579"
       scale_y_rel="false"
       spacing="0"
       normal_offset="0"
       tang_offset="0"
       prop_units="false"
       vertical_pattern="false"
       hide_knot="false"
       fuse_tolerance="0" />
    <inkscape:path-effect
       effect="skeletal"
       id="path-effect3283"
       is_visible="true"
       lpeversion="1"
       pattern="m 39.12895,37.461309 a 6.930139,5.9501889 0 0 0 -5.813576,2.717504 6.930139,5.9501889 0 0 0 6.040735,3.040653 6.930139,5.9501889 0 0 0 5.815613,-2.72026 6.930139,5.9501889 0 0 0 -6.042772,-3.037897 z"
       copytype="single_stretched"
       prop_scale="0.13557925"
       scale_y_rel="false"
       spacing="0"
       normal_offset="0"
       tang_offset="0"
       prop_units="false"
       vertical_pattern="false"
       hide_knot="false"
       fuse_tolerance="0" />
    <inkscape:path-effect
       effect="skeletal"
       id="path-effect3101"
       is_visible="true"
       lpeversion="1"
       pattern="m 53.294399,38.86791 a 6.930139,5.9501889 0 0 0 -5.813576,2.717504 6.930139,5.9501889 0 0 0 6.040735,3.040653 6.930139,5.9501889 0 0 0 5.815613,-2.72026 6.930139,5.9501889 0 0 0 -6.042772,-3.037897 z"
       copytype="single_stretched"
       prop_scale="0.615356"
       scale_y_rel="false"
       spacing="0"
       normal_offset="0"
       tang_offset="0"
       prop_units="false"
       vertical_pattern="false"
       hide_knot="false"
       fuse_tolerance="0" />
    <inkscape:path-effect
       effect="skeletal"
       id="path-effect2771"
       is_visible="true"
       lpeversion="1"
       pattern="m 53.294399,38.86791 a 6.930139,5.9501889 0 0 0 -5.813576,2.717504 6.930139,5.9501889 0 0 0 6.040735,3.040653 6.930139,5.9501889 0 0 0 5.815613,-2.72026 6.930139,5.9501889 0 0 0 -6.042772,-3.037897 z"
       copytype="single_stretched"
       prop_scale="0.61535608"
       scale_y_rel="false"
       spacing="0"
       normal_offset="0"
       tang_offset="0"
       prop_units="false"
       vertical_pattern="false"
       hide_knot="false"
       fuse_tolerance="0" />
    <inkscape:path-effect
       effect="skeletal"
       id="path-effect2498"
       is_visible="true"
       lpeversion="1"
       pattern="m 53.294399,38.86791 a 6.930139,5.9501889 0 0 0 -5.813576,2.717504 6.930139,5.9501889 0 0 0 6.040735,3.040653 6.930139,5.9501889 0 0 0 5.815613,-2.72026 6.930139,5.9501889 0 0 0 -6.042772,-3.037897 z"
       copytype="single_stretched"
       prop_scale="0.290136"
       scale_y_rel="false"
       spacing="0"
       normal_offset="0"
       tang_offset="0"
       prop_units="false"
       vertical_pattern="false"
       hide_knot="false"
       fuse_tolerance="0" />
    <inkscape:path-effect
       effect="skeletal"
       id="path-effect2415"
       is_visible="true"
       lpeversion="1"
       pattern="m 53.294399,38.86791 a 6.930139,5.9501889 0 0 0 -5.813576,2.717504 6.930139,5.9501889 0 0 0 6.040735,3.040653 6.930139,5.9501889 0 0 0 5.815613,-2.72026 6.930139,5.9501889 0 0 0 -6.042772,-3.037897 z"
       copytype="single_stretched"
       prop_scale="0.290136"
       scale_y_rel="false"
       spacing="0"
       normal_offset="0"
       tang_offset="0"
       prop_units="false"
       vertical_pattern="false"
       hide_knot="false"
       fuse_tolerance="0" />
    <inkscape:path-effect
       effect="skeletal"
       id="path-effect2275"
       is_visible="true"
       lpeversion="1"
       pattern="m 53.294399,38.86791 a 6.930139,5.9501889 0 0 0 -5.813576,2.717504 6.930139,5.9501889 0 0 0 6.040735,3.040653 6.930139,5.9501889 0 0 0 5.815613,-2.72026 6.930139,5.9501889 0 0 0 -6.042772,-3.037897 z"
       copytype="single_stretched"
       prop_scale="0.29013612"
       scale_y_rel="false"
       spacing="0"
       normal_offset="0"
       tang_offset="0"
       prop_units="false"
       vertical_pattern="false"
       hide_knot="false"
       fuse_tolerance="0" />
    <inkscape:path-effect
       effect="skeletal"
       id="path-effect2135"
       is_visible="true"
       lpeversion="1"
       pattern="m 53.294399,38.86791 a 6.930139,5.9501889 0 0 0 -5.813576,2.717504 6.930139,5.9501889 0 0 0 6.040735,3.040653 6.930139,5.9501889 0 0 0 5.815613,-2.72026 6.930139,5.9501889 0 0 0 -6.042772,-3.037897 z"
       copytype="single_stretched"
       prop_scale="0.742612"
       scale_y_rel="false"
       spacing="0"
       normal_offset="0"
       tang_offset="0"
       prop_units="false"
       vertical_pattern="false"
       hide_knot="false"
       fuse_tolerance="0" />
    <inkscape:path-effect
       effect="skeletal"
       id="path-effect1972"
       is_visible="true"
       lpeversion="1"
       pattern="m 52.765232,37.809576 a 6.930139,5.9501889 0 0 0 -5.813576,2.717504 6.930139,5.9501889 0 0 0 6.040735,3.040653 6.930139,5.9501889 0 0 0 5.815613,-2.72026 6.930139,5.9501889 0 0 0 -6.042772,-3.037897 z"
       copytype="single_stretched"
       prop_scale="0.742612"
       scale_y_rel="false"
       spacing="0"
       normal_offset="0"
       tang_offset="0"
       prop_units="false"
       vertical_pattern="false"
       hide_knot="false"
       fuse_tolerance="0" />
    <inkscape:path-effect
       effect="skeletal"
       id="path-effect1832"
       is_visible="true"
       lpeversion="1"
       pattern="m 53.294399,38.86791 a 6.930139,5.9501889 0 0 0 -5.813576,2.717504 6.930139,5.9501889 0 0 0 6.040735,3.040653 6.930139,5.9501889 0 0 0 5.815613,-2.72026 6.930139,5.9501889 0 0 0 -6.042772,-3.037897 z"
       copytype="single_stretched"
       prop_scale="0.742612"
       scale_y_rel="false"
       spacing="0"
       normal_offset="0"
       tang_offset="0"
       prop_units="false"
       vertical_pattern="false"
       hide_knot="false"
       fuse_tolerance="0" />
    <inkscape:path-effect
       effect="skeletal"
       id="path-effect1551"
       is_visible="true"
       lpeversion="1"
       pattern="m 53.294399,38.86791 a 6.930139,5.9501889 0 0 0 -5.813576,2.717504 6.930139,5.9501889 0 0 0 6.040735,3.040653 6.930139,5.9501889 0 0 0 5.815613,-2.72026 6.930139,5.9501889 0 0 0 -6.042772,-3.037897 z"
       copytype="single_stretched"
       prop_scale="0.74261161"
       scale_y_rel="false"
       spacing="0"
       normal_offset="0"
       tang_offset="0"
       prop_units="false"
       vertical_pattern="false"
       hide_knot="false"
       fuse_tolerance="0" />
  </defs>
  <g
     inkscape:groupmode="layer"
     id="layer3"
     inkscape:label="hopper"
     style="display:inline;opacity:1">
    <g
       id="g18253"
       transform="translate(5.7582247,-4.0307573)">
      <path
         style="fill:#000000;stroke-width:0.264583"
         d="m 214.78945,64.44972 c -0.34673,-0.242569 -0.71002,-0.464572 -1.08837,-0.663972 -2.12892,-1.067948 -4.39389,-1.421994 -6.49247,-1.361186 -2.70775,0.05653 -5.25413,0.627543 -7.54991,1.37679 -7.54305,2.449988 -13.49438,6.780018 -16.75389,9.657718 3.2196,-1.183766 11.07148,-4.657738 17.73011,-6.145502 2.15173,-0.476936 4.3969,-0.841209 6.57041,-0.77145 1.65608,0.07047 3.26898,0.321328 4.52129,1.026161 0.48679,0.252974 0.94079,0.587759 1.34678,0.981582 0.52415,0.508223 0.96821,1.114707 1.29859,1.769763 0.82344,1.556038 1.07169,3.532498 1.14953,5.536749 0,0 0,10e-7 0,10e-7 0.24299,7.790436 -3.17171,18.131553 -4.15902,22.274663 2.50274,-3.617117 7.69655,-12.321671 8.12471,-22.249438 0.11355,-2.344096 -0.16577,-4.939036 -1.30858,-7.423352 -0.7572,-1.589867 -1.91998,-2.980539 -3.38918,-4.008527 z"
         id="path1503" />
      <path
         style="fill:#000000;stroke-width:0.264583"
         d="m 210.44788,77.615111 c 0.0834,-0.980256 0.0817,-1.979226 -0.0245,-2.987474 -0.098,-2.136641 -1.22258,-4.446213 -3.47776,-5.794111 -2.54885,-1.039849 -4.85164,-0.27413 -6.28268,0.880969 -2.9394,2.217826 -4.18038,5.312829 -4.69873,7.24076 1.29588,-1.158452 3.78808,-3.701721 6.22215,-4.708041 1.15137,-0.392495 2.51834,-0.687321 2.9403,-0.09887 0.6796,0.282771 0.8618,1.540262 1.11019,2.906395 0.0836,0.931104 0.0307,1.888225 -0.11524,2.874133 -0.22664,1.533554 -0.68027,3.137798 -1.16575,4.71799 -0.0705,0.312205 -0.3219,0.666454 -0.59052,0.787692 -0.38984,0.263941 -1.11156,0.22514 -1.84587,0.101353 -2.85375,-0.518911 -5.40298,-3.585806 -6.77562,-5.271009 0.2313,2.309119 1.3468,6.261287 5.70444,8.334386 1.11671,0.530578 2.56088,0.782974 4.14967,0.363733 1.41205,-0.458409 2.56628,-1.495383 3.14275,-2.92101 0.83383,-1.923941 1.50839,-4.094653 1.70715,-6.426898 z"
         id="path1784"
         sodipodi:nodetypes="csc" />
      <path
         style="fill:#000000;stroke-width:0.264583"
         d="m 204.0153,80.605574 c 0.35548,-0.295649 0.60028,-0.656071 0.72915,-1.06857 0.31216,-1.444001 0.0514,-2.393371 -0.39106,-2.842248 -0.41694,-0.763506 -1.2025,-1.387545 -2.06242,-1.65324 -1.39109,-0.400256 -2.16797,0.509531 -2.22014,1.109968 0.61083,0.142166 1.1486,0.691552 0.8285,1.052249 0.008,0.315605 -0.12885,0.640488 -0.0976,0.986442 -0.10328,0.430413 -0.0409,0.423187 -0.0655,-0.09059 0.11919,-0.435523 0.46744,-0.753588 1.07709,-1.006251 0.043,-0.01782 0.0873,-0.0353 0.13288,-0.05247 0.64705,0.0086 0.87509,-0.01353 0.72206,0.06045 -1.23312,-0.664874 -1.68594,-0.193897 -1.81103,-0.106712 0,0 0,0 0,10e-7 0.11349,0.568851 0.0358,0.690959 -0.13901,0.639079 0,0 0,0 0,0 -0.2146,-0.325877 -0.28809,-0.868096 -0.46946,-1.331947 -0.49037,0.07072 -1.06837,0.194852 -1.56309,0.702394 -0.28318,0.295254 -0.42555,0.835016 -0.0789,1.711386 0,10e-7 0,10e-7 0,10e-7 0.68747,1.281284 1.87223,1.99066 2.19108,2.126565 0.26371,0.285419 0.95164,0.45941 2.06394,0.372271 0.46204,-0.149539 0.84813,-0.354918 1.15344,-0.608787 z"
         id="path1924" />
      <path
         id="path2087"
         style="fill:#000000;stroke-width:0.999999"
         d="m 686.24023,265.95898 c -1.16294,-0.006 -2.13297,0.16579 -2.88281,0.45508 -9.49534,1.70071 -17.50432,5.81914 -24.32422,9.29492 -35.25554,17.43238 -70.69161,40.99513 -89.05078,53.60938 22.31554,-9.14903 54.77993,-25.97534 94.20899,-42.28906 6.77602,-2.72851 13.47241,-5.81763 19.71484,-6.73633 -0.95427,9.52413 -1.17888,19.26845 -0.6582,29.13867 0.27855,5.65662 0.86695,11.59511 2.23828,17.63477 0.7059,4.25407 2.49331,9.56521 6.76758,14.64257 1.5702,1.29858 2.38012,4.60836 3.95898,8.68555 1.55497,4.7247 2.73768,9.71341 3.82422,14.87305 0.0548,0.2598 0.10964,0.52064 0.16406,0.78125 0.9854,4.76779 1.83649,9.58128 2.59375,14.42578 0.20467,1.3098 0.39589,2.61396 0.58203,3.91601 -11.31886,8.05565 -21.6864,16.41543 -32.51562,23.17774 -6.02359,4.11492 -11.56259,7.81243 -17.37305,9.88867 -2.15153,0.71482 -3.93048,1.29671 -5.32422,1.22656 -0.86139,-0.0797 -1.6042,-0.11218 -1.65625,-0.30078 -8.03607,-6.93052 -14.88835,-14.41007 -20.24609,-22.54297 -4.18817,-6.29128 -7.88183,-13.91456 -11.4082,-20.57617 -4.05721,-7.74028 -8.5569,-14.64968 -14.03907,-20.48047 -8.78498,-9.25424 -19.19828,-15.36082 -27.66015,-19.46289 7.067,5.52674 16.41034,13.36396 23.32812,23.07422 4.25722,5.93125 7.52012,12.66237 10.64844,20.46485 2.71824,6.8262 5.76262,14.95637 9.89062,22.54101 5.24372,9.54879 12.24531,18.47866 20.67774,26.62891 3.02317,2.63573 6.53674,3.97869 9.93359,4.07617 3.87183,0.14778 7.34891,-0.52542 10.29297,-1.52344 6.99577,-2.24647 13.21102,-5.64579 18.99024,-9.29883 a 30.468718,38.902022 0 0 1 29.8496,-31.17578 30.468718,38.902022 0 0 1 7.72266,1.27344 c 1.17236,-0.97909 2.34334,-1.95947 3.5332,-2.9375 -0.004,-0.045 -0.006,-0.0902 -0.01,-0.13477 -0.0113,-0.12359 -0.024,-0.24592 -0.0391,-0.36914 0.45411,-1.68064 0.90778,-3.35958 1.36132,-5.03515 -0.20711,-1.62048 -0.42931,-3.23403 -0.66406,-4.8418 -0.74131,-5.08247 -1.61166,-10.18193 -2.65039,-15.27734 -0.63477,-3.13694 -1.33894,-6.31154 -2.16601,-9.50391 h -0.002 c -0.6864,-2.64884 -1.45679,-5.30892 -2.33984,-7.9668 -1.16379,-4.21494 -3.20998,-9.51388 -7.60742,-14.57226 -1.29064,-0.8463 -1.86598,-3.7539 -3.04492,-7.36914 -1.19305,-4.68461 -1.77889,-9.74427 -2.2129,-14.9668 -0.80621,-10.17843 -0.86213,-20.23469 -0.13476,-30.07227 0.71191,-3.22586 -0.8861,-7.10439 -4.98242,-10.57812 -2.87809,-1.28429 -5.35082,-1.78769 -7.28907,-1.79688 z m -1.97656,11.00782 c -0.0164,0.13824 -0.0288,0.27767 -0.0449,0.41601 -0.0853,-0.18358 -0.083,-0.31692 0.0449,-0.41601 z m 20.92578,105.63672 c 0.0189,0.10847 0.0338,0.21732 0.0508,0.32617 0.008,0.0393 0.012,0.0798 0.0195,0.11914 -0.25866,0.18139 -0.50997,0.36508 -0.76758,0.54687 0.23206,-0.33094 0.4661,-0.66029 0.69726,-0.99218 z"
         transform="scale(0.26458333)" />
      <path
         style="fill:#000000;fill-opacity:1;stroke-width:0.264583"
         d="m 200.51688,102.96186 c 1.0608,-0.80576 2.00886,-1.51965 3.03799,-2.14645 1.84207,-1.125416 3.43182,-1.639908 4.75065,-2.015011 -1.22003,-0.296889 -3.19951,-0.252548 -5.41854,0.754277 -1.2964,0.589194 -2.49421,1.391444 -3.6706,2.295954 -0.18638,0.14336 -0.37049,0.28791 -0.5525,0.43284 -1.31566,1.03642 -2.23216,1.86675 -3.42504,2.59843 -1.34528,0.82611 -2.55612,1.11234 -3.62528,1.16813 0.8903,0.44775 2.42454,0.64669 4.17915,-0.0645 1.39386,-0.56038 2.60733,-1.42087 3.88894,-2.39196 0.28024,-0.21007 0.55791,-0.42115 0.83523,-0.63174 z"
         id="path2227"
         sodipodi:nodetypes="cc" />
      <path
         id="path2367"
         style="fill:#000000;fill-opacity:1;stroke-width:0.999999"
         d="m 798.17383,375.12109 c -7.63408,6.35775 -21.65053,19.52801 -37.32227,31.29493 -1.15854,0.87016 -2.31832,1.73082 -3.48242,2.58593 -4.73502,3.46538 -9.07571,6.45592 -13.41211,9.10547 a 13.027093,21.763368 0 0 1 1.64258,5.07031 c 5.11548,-2.3905 10.22553,-5.44877 15.42187,-9.09961 1.72396,-1.20675 3.43247,-2.45375 5.11719,-3.74023 15.91733,-12.15659 26.75769,-25.4554 32.03516,-35.2168 z m -77.57617,52.07813 c -0.0673,2.6e-4 -0.13162,0.008 -0.19922,0.008 0.0623,0.0256 0.12842,0.0456 0.1914,0.0703 a 13.027093,21.763368 0 0 1 0.008,-0.0781 z"
         transform="scale(0.26458333)" />
      <path
         id="path2450"
         style="fill:#000000;fill-opacity:1;stroke-width:0.999999"
         d="m 558.8125,337.50586 c -38.34123,6.93714 -98.45992,21.79635 -167.3457,52.44336 -16.81486,7.46732 -34.62915,15.7074 -50.75196,26.80859 -4.01133,2.68316 -8.46464,5.77373 -11.71679,10.43555 -0.97195,1.13223 -1.76733,3.0392 -1.66211,5.59375 0.61842,2.51565 2.08456,4.13871 3.73242,4.75977 3.89358,1.81553 7.31394,5.03792 11.08984,8.32812 2.71167,-0.40542 12.38088,2.21189 15.38699,1.86941 -0.0783,-0.0591 -0.15819,-0.11642 -0.23633,-0.17578 -1.42043,-1.09205 -9.6233,-5.29695 -11.05886,-6.55301 -2.59759,-3.32591 -10.76812,-11.7268 -1.99805,-19.1621 15.42901,-10.78194 39.62531,-16.01582 56.35965,-23.73997 84.50919,-32.71721 117.5943,-50.37477 158.2009,-60.60769 z m 32.16992,31.51953 c -2.6897,1.95572 -4.63151,4.36232 -7.19531,7.00781 -3.97841,4.10305 -8.47772,8.33621 -13.52539,12.5 -18.48654,15.25629 -39.31646,27.5017 -67.98633,42.10157 -11.83928,6.01348 -24.73043,12.10016 -38.34766,17.27734 3.22712,0.72294 8.74529,2.857 11.07394,3.67076 11.33744,-4.84318 22.06744,-10.25022 32.05859,-15.65235 27.75493,-14.96901 48.97702,-28.40608 66.99414,-44.80273 4.83958,-4.40621 6.41518,-10.25898 10.20537,-14.6649 2.39142,-2.77408 4.16591,-5.29649 6.72265,-7.4375 z"
         transform="scale(0.26458333)"
         sodipodi:nodetypes="ccccccccccccccccccccccc" />
      <path
         style="fill:#000000;stroke-width:0.264583"
         d="m 234.78139,60.065553 c -9.69299,3.774345 -17.91375,9.882278 -22.048,13.6913 5.0794,-1.865749 14.35825,-7.066334 24.24515,-10.740385 0.36745,-0.136614 0.73548,-0.270874 1.10429,-0.402712 1.92161,-0.691733 3.90102,-1.277432 5.85683,-1.831422 1.46357,-0.405958 2.94895,-0.838732 4.40998,-1.557605 2.95478,-1.526058 4.67474,-4.134973 5.5972,-6.397746 0.94506,-2.282802 1.20371,-4.260384 1.6618,-5.853754 -1.00072,1.250762 -1.8856,3.20483 -3.17186,5.048391 -1.24827,1.779329 -3.04355,3.777873 -5.26995,4.541785 -1.20499,0.457255 -2.51014,0.698938 -4.0243,1.030029 -2.03697,0.435275 -4.14245,0.972194 -6.23661,1.691415 -0.71324,0.246484 -1.4215,0.507023 -2.12453,0.780704 z"
         id="path2723"
         sodipodi:nodetypes="csc" />
      <path
         id="path3053"
         style="fill:#000000;stroke-width:0.999999"
         d="m 966.63867,100.24219 c -3.60892,6.03756 -12.9588,23.84487 -20.66601,34.125 -0.443,0.57715 -1.119,1.19715 -1.93946,2.0332 -1.22899,1.20899 -2.52556,2.39504 -3.90429,3.64453 -3.96839,3.59244 -7.91777,6.99301 -12.31446,10.79492 -10.71265,9.25969 -24.74479,21.34088 -36.4414,31.63868 -1.84951,1.62812 -3.69908,3.2614 -5.54493,4.89843 -26.71045,23.69232 -54.21586,49.32755 -71.88281,67.11914 -0.85305,0.85901 -1.69958,1.7236 -2.54687,2.58594 a 10.609642,8.4333053 0 0 1 1.67187,3.70117 c 1.28247,-0.81626 2.59006,-1.65852 3.95508,-2.55664 22.7452,-14.96465 51.29784,-37.37417 81.11328,-63.86914 0.70776,-0.6291 1.41519,-1.25985 2.1211,-1.89062 12.49303,-11.16187 24.31286,-22.24614 35.2832,-33.43555 4.03332,-4.1131 7.84407,-8.1143 11.47461,-12.25391 1.26807,-1.44487 2.51733,-2.91022 3.72851,-4.45117 0.7327,-0.91251 1.58243,-2.01867 2.39453,-3.39844 7.64134,-13.93725 11.4743,-29.26334 13.49805,-38.68554 z"
         transform="scale(0.26458333)" />
      <path
         style="fill:#000000;stroke-width:0.264583"
         d="m 212.73339,73.756853 c -0.18308,-0.145848 -0.33362,-0.340201 -0.34215,-0.524289 -0.0808,-0.339854 0.30107,-0.860045 0.47361,-1.131685 -0.35065,0.0483 -0.99736,0.29186 -1.14449,1.104258 -0.0411,0.476524 0.18994,0.945706 0.59643,1.214683 0.018,0.01142 0.0362,0.02246 0.0545,0.03311 1.31523,0.764636 2.25896,-0.416768 2.2998,-0.920729 -0.39505,0.293761 -1.32019,0.730363 -1.91259,0.244206 0,0 0,0 0,0 -0.008,-0.0064 -0.0168,-0.01292 -0.0251,-0.01955 z"
         id="path3235" />
      <path
         style="fill:#000000;fill-opacity:1;stroke-width:0.264583"
         d="m 76.258527,133.76921 c -1.772387,-0.32731 -3.544464,-0.64236 -5.308526,-0.94789 -8.086438,-1.40137 -17.180011,-2.73312 -23.946543,-3.711 0,0 -2e-6,0 -2e-6,0 -3.74748,-0.54188 -6.348411,-0.90906 -9.491384,-1.4117 -2.631491,-0.42438 -4.47545,-0.70939 -6.518915,-1.26712 1.73536,0.99634 3.666606,1.74111 6.198287,2.59018 2.789947,0.93716 5.804847,1.78376 9.308493,2.66538 0,0 3e-6,0 3e-6,0 7.251159,1.82493 14.942339,3.38301 23.73737,5.06881 1e-6,0 2e-6,0 3e-6,0 2.338021,0.44834 4.688729,0.88858 7.0442,1.32902 5.860102,1.09514 11.191892,2.08993 16.718754,3.2377 3.332082,0.69274 6.353263,1.35606 9.336543,2.16687 v 0 c 2.34885,0.64942 4.36047,1.21845 6.21085,2.16567 0,0 0,0 0,0 v 0 c 3.83624,1.97539 6.75295,3.39517 9.98574,4.14951 v 0 c 0.16732,-0.0491 0.3092,-0.10735 0.42447,-0.1313 0,0 0,0 0,0 0.0131,0.004 0.0356,0.0132 0.0246,0.0222 0,0 0,0 0,0 -0.0179,0.0145 -0.0466,0.0144 -0.0709,0.019 -0.33632,0.0639 -0.61578,0.24507 -0.80283,0.50433 0.24966,-0.20608 0.56425,-0.36929 0.90393,-0.48072 0.0244,-0.008 0.053,-0.0116 0.0705,-0.0302 0,0 0,0 0,0 0.0108,-0.0114 -0.012,-0.0235 -0.0254,-0.0301 0,0 0,0 0,0 v 0 c -0.12762,-0.0698 -0.27523,-0.13674 -0.402,-0.22655 v 0 c -3.09239,-1.50591 -5.13685,-3.03458 -9.00726,-5.66077 v 0 c -1.94569,-1.30689 -4.09513,-2.20437 -6.43044,-3.0613 v 0 c -2.97325,-1.10185 -6.067018,-2.01969 -9.399734,-2.89851 -5.963077,-1.57362 -12.1351,-2.87469 -18.559749,-4.0615 z"
         id="path8370" />
      <path
         style="fill:#000000;fill-opacity:1;stroke-width:0.264583"
         d="m 113.39254,155.05094 c 0.13432,-0.2346 0.34263,-0.48269 0.56773,-0.74685 0,0 0,0 0,0 1.63781,-1.83233 3.95763,-3.03094 5.16839,-4.03622 -1.48632,0.0541 -4.23624,0.60149 -6.49275,2.75141 -0.40925,0.37654 -0.80344,0.87175 -1.06772,1.50479 -0.0398,0.0954 -0.0766,0.19372 -0.10991,0.29505 -0.1874,0.55507 -0.14826,1.21018 0.17271,1.83064 0.89876,1.22092 2.2301,1.38757 3.15971,1.14476 1.89558,-0.35052 3.06405,-1.57911 3.57521,-2.42743 -0.84102,0.33196 -2.32557,0.98482 -3.71382,0.92757 -0.67393,-0.0976 -1.44675,-0.20766 -1.41898,-0.53747 -0.0468,-0.0464 -0.0129,-0.21247 0.0253,-0.3912 0.0267,-0.10374 0.073,-0.20828 0.13412,-0.31505 z"
         id="path8420"
         sodipodi:nodetypes="cc" />
      <path
         style="fill:#000000;fill-opacity:1;stroke-width:0.264583"
         d="m 107.54789,159.69745 c 0.034,-0.11972 0.26156,-0.43124 0.43968,-0.70468 1.04882,-1.11895 2.71045,-1.71635 3.64342,-2.34301 -1.04293,-0.25662 -2.98697,-0.36654 -4.81623,1.00151 -0.67078,0.43964 -1.16198,1.29215 -1.03885,2.33956 0.024,0.20417 0.0715,0.41387 0.1451,0.62645 0.68565,1.09844 1.80039,1.4702 2.6739,1.40827 1.74776,-0.0209 2.94408,-0.94969 3.48319,-1.63963 -0.78001,0.0628 -2.22974,0.31374 -3.34547,0.0406 -0.55936,-0.19018 -1.13642,-0.36613 -1.13343,-0.64831 -0.0531,-0.001 -0.0658,-0.0298 -0.0513,-0.0807 z"
         id="path8560"
         sodipodi:nodetypes="cc" />
      <path
         style="fill:#000000;fill-opacity:1;stroke-width:0.264583"
         d="m 95.488304,163.8453 c 0.0404,-0.2952 0.08289,-0.59418 0.122874,-0.89908 0.08939,-0.71848 0.460752,-1.41696 0.998853,-1.88073 0.629711,-0.57309 1.530902,-0.91508 2.428467,-1.16962 2.653502,-0.72908 5.932782,-0.60852 7.581492,-0.62475 -1.53499,-0.57169 -4.59722,-1.4121 -7.906739,-0.88102 -1.052179,0.16231 -2.21147,0.52508 -3.231674,1.30181 -0.91804,0.72752 -1.549209,1.79765 -1.728132,2.99807 -0.0714,0.48003 -0.14805,0.97594 -0.208433,1.48619 -0.02866,0.24248 -0.05366,0.48826 -0.07276,0.73755 -0.0631,0.23404 -0.07503,0.69255 0.146108,1.30719 0,0 2e-6,0 2e-6,0 0.293694,0.46111 0.541747,0.66713 0.638193,0.69824 0,0 0,0 0,0 0.188773,0.14108 0.361831,0.34531 0.529682,0.57844 0.118713,0.39947 0.675519,0.63412 1.563654,0.51011 0.535189,-0.35061 0.766619,-0.69471 0.809751,-0.88823 0.471771,-0.85113 0.794675,-1.66095 1.182714,-2.33814 0.577343,-0.99499 1.213196,-1.80855 2.003034,-2.37539 1.18606,-0.88512 2.73127,-1.09865 3.82794,-1.12026 -1.03307,-0.37562 -2.65546,-0.62785 -4.375798,0.20314 -1.050797,0.52379 -1.981094,1.38192 -2.743907,2.46703 -0.53472,0.75594 -0.943223,1.56913 -1.396184,2.27633 -0.193839,0.2059 -0.187845,0.30995 -0.08035,0.16777 0.568589,0.0239 0.785238,-0.015 0.71393,0.0945 -0.221702,-0.35352 -0.506194,-0.70124 -0.868844,-1.00986 0,0 -1e-6,0 -1e-6,0 -0.182372,-0.19634 -0.25614,-0.18884 -0.11815,-0.0569 0,0 1e-6,0 1e-6,0 -0.01806,0.10263 0.05772,-0.0368 0.04058,-0.3649 0.0345,-0.39702 0.08679,-0.80184 0.143704,-1.21746 z"
         id="path9042" />
      <path
         style="fill:#000000;fill-opacity:1;stroke-width:0.264583"
         d="m 97.506037,152.99787 c -0.155492,-0.0799 -0.306331,-0.16798 -0.451295,-0.26377 -1.325124,-0.83025 -2.498602,-2.22094 -3.682238,-3.53897 -2.541074,-2.88215 -4.343295,-5.0085 -6.20598,-6.58518 0.569854,1.90927 1.965183,5.07674 4.04968,8.24049 0.983343,1.52543 2.238917,3.2155 4.093044,4.5115 0.453447,0.3052 0.937768,0.55921 1.443631,0.75844 1.107829,0.43608 2.302796,0.60324 3.482581,0.4868 2.23415,-0.26594 4.12206,-1.18007 5.63166,-2.03491 v 0 c 1.51503,-0.84156 2.82857,-1.63851 3.97409,-2.44971 v 0 c 0.25789,-0.18303 0.50407,-0.35995 0.74438,-0.55545 v 0 c -0.01,-0.17351 1.7e-4,-0.34353 0.0215,-0.51208 v 0 c 0,0 0,0 0,0 -4.1e-4,-0.0351 0.0199,-0.0746 -0.009,-0.10982 0,0 0,0 0,0 -0.0327,-0.0404 -0.0739,-0.0516 -0.10865,-0.0715 -0.0784,-0.0446 -0.15037,-0.0811 -0.2169,-0.11218 v 0 c 0,0 0,0 0,0 -0.13468,0.0761 -0.26007,0.15605 -0.37687,0.23347 v 0 c -0.12369,0.0817 -0.24269,0.16386 -0.35651,0.24513 v 0 c -0.0397,0.0283 -0.0788,0.0565 -0.11731,0.0847 v 0 c 0,0 0,0 0,0 -0.003,0.031 -0.006,0.0595 -0.0102,0.0856 0,0 0,0 0,0 -0.002,0.0104 -0.004,0.0205 -0.006,0.0302 -5e-5,2.2e-4 -3e-5,4.1e-4 4e-5,5.8e-4 -7e-5,-1.7e-4 -9e-5,-3.6e-4 -4e-5,-5.8e-4 0.002,-0.01 0.004,-0.0189 0.007,-0.0276 0,0 0,0 0,0 0.006,-0.0218 0.013,-0.0408 0.0213,-0.057 0,0 0,-1e-5 0,-1e-5 v 0 c 0.048,-0.003 0.0966,-0.006 0.14558,-0.01 v 0 c 0.14086,-0.01 0.28278,-0.0203 0.43187,-0.0318 v 0 c 0.13735,-0.0107 0.28512,-0.023 0.4257,-0.0298 v 0 c 0.0339,-0.0356 0.0642,-0.0769 0.0911,-0.12063 0.0119,-0.0193 0.0279,-0.0498 0.0334,-0.0528 0,0 0,0 0,0 0.005,-0.003 -0.0406,-0.002 -0.0671,-0.008 0,0 0,0 0,0 v 0 c -0.0717,-0.0549 -0.15901,-0.12549 -0.26304,-0.203 v 0 c -0.27106,0.07 -0.55833,0.13435 -0.86521,0.21086 v 0 0 c -1.26891,0.31334 -2.84525,0.75559 -4.45987,1.28156 v 0 c -1.59494,0.50185 -3.36136,1.12261 -4.920987,1.15697 -0.84217,0.0377 -1.716066,-0.15934 -2.479766,-0.55215 z"
         id="path9205" />
      <path
         style="fill:#000000;fill-opacity:1;stroke-width:0.264583"
         d="m 77.338784,153.54911 c -3.724555,-5.98336 -6.32794,-13.20359 -7.193185,-16.74174 3.45855,3.20858 6.31504,8.40064 10.737488,15.34225 0.303434,0.47653 0.607587,0.94899 0.914683,1.41911 1.104075,1.6099 1.958147,3.00408 3.14937,3.82007 0.697702,0.57637 1.771887,0.76101 2.662655,0.52676 0,0 0,0 10e-7,0 v 0 c 2.019191,-0.59394 3.788504,-1.02134 5.33463,-1.26482 v 0 h 10e-7 v 0 c 0.288621,-0.0453 0.561083,-0.0844 0.83153,-0.11199 v 0 c 0.05121,-0.006 0.102177,-0.0113 0.153439,-0.0153 v 0 c 0,0 10e-7,0 10e-7,0 0.03318,0.0504 0.05252,0.0804 0.07055,0.0949 0,0 10e-7,0 10e-7,0 0.0022,0.002 0.0029,0.004 0.0031,0.005 -1.85e-4,-0.002 -8.92e-4,-0.004 -0.003,-0.005 0,0 -1e-6,0 -1e-6,0 -0.01789,-0.0135 -0.03597,-0.0373 -0.06216,-0.0656 0,0 -10e-7,0 -10e-7,0 v 0 c -0.04257,0.0299 -0.08248,0.0602 -0.122134,0.0906 v 0 c -0.201051,0.15613 -0.440371,0.3432 -0.665735,0.51239 v 0 h -1e-6 v 0 c -1.1827,0.8886 -2.771828,1.9333 -4.590889,2.99315 v 0 c 0,0 -10e-7,0 -10e-7,0 -1.478506,0.78908 -3.47511,0.92945 -5.287122,-0.0134 v 0 c -1.993748,-1.1095 -3.416872,-2.79935 -4.552299,-4.49507 -0.479231,-0.68396 -0.939157,-1.38216 -1.380847,-2.09151 z"
         id="path9255" />
      <path
         style="fill:#000000;fill-opacity:1;stroke-width:0.264583"
         d="m 68.298734,152.72716 c -0.253417,-0.54469 -0.531375,-1.09223 -0.847597,-1.63344 -1.516422,-2.65721 -3.257442,-4.78523 -3.989293,-6.98285 0,0 0,0 0,0 -0.379888,-1.14306 -0.52894,-2.23558 -0.261366,-3.19876 0.339095,-1.48268 1.691705,-2.80953 2.630196,-3.64417 -1.164439,0.29416 -3.055275,1.06006 -4.165974,3.00848 -0.670604,1.26739 -0.870587,2.85322 -0.550191,4.4454 0,0 0,0 0,0 0.592913,3.00862 2.158194,5.34062 3.594312,7.92588 0.343894,0.63892 0.652697,1.33473 0.97125,2.06826 0.87789,2.02045 1.780482,4.18175 3.492946,6.02541 0,0 0,0 10e-7,0 1.456084,1.49981 3.32061,2.32889 5.133385,2.5092 3.270759,0.26477 5.987913,-1.11479 7.490449,-2.08181 -1.568596,0.15249 -4.745933,0.6284 -7.120246,-0.0815 -1.265928,-0.35739 -2.492156,-1.14565 -3.374281,-2.26062 0,0 -10e-7,0 -10e-7,0 -1.317779,-1.55576 -1.860549,-3.64193 -3.00359,-6.09945 z"
         id="path9305" />
      <path
         style="fill:#000000;fill-opacity:1;stroke-width:0.264583"
         d="m 58.815558,156.59718 c -0.0491,-0.0757 -0.0989,-0.15117 -0.149428,-0.22644 -1.797247,-2.74386 -3.286597,-5.1288 -3.599962,-7.763 0,0 0,0 0,0 -0.152815,-1.16505 -0.03197,-2.2816 0.385534,-3.22077 0.573389,-1.36818 1.817811,-2.48808 2.742888,-3.22808 -1.115775,0.23086 -2.800588,0.85971 -4.041632,2.44255 -0.817029,1.078 -1.330084,2.5255 -1.343791,4.1283 10e-7,0 0,0 0,0 -0.01292,3.31149 1.440792,6.4421 3.403669,9.29697 0.159777,0.23779 0.313742,0.48248 0.463599,0.73328 0.6152,1.02913 1.166521,2.17201 1.742514,3.31464 0.603838,1.24616 1.286241,2.55533 2.366214,3.69844 1.182569,1.20128 2.732229,1.7577 4.162401,1.75944 2.710607,-0.0522 4.939422,-1.35854 6.195991,-2.19523 -1.280636,0.15512 -4.092863,0.70898 -6.051842,0.30072 -0.939527,-0.18704 -1.876007,-0.71724 -2.443304,-1.51004 -0.6725,-0.85512 -1.075222,-1.95194 -1.656793,-3.25693 -0.592572,-1.38817 -1.260744,-2.86264 -2.176058,-4.27385 z"
         id="path9388" />
      <path
         id="path8007"
         style="fill:#000000;fill-opacity:1;stroke-width:0.999999"
         d="m 116.625,416.3418 c -1.18314,0.0211 -2.36599,0.0827 -3.54883,0.1914 -6.0305,0.47441 -12.05262,2.81394 -15.789061,7.52735 -3.345452,4.51381 -3.885876,10.13387 -3.05664,14.93164 1.112511,6.60204 4.251066,12.4027 7.697261,17.18554 -2.908901,-5.02779 -5.483576,-11.04551 -5.974605,-17.40234 -0.337096,-4.48842 0.539146,-9.51801 3.603516,-12.85937 3.182969,-3.65273 8.416499,-5.02837 13.785159,-5.23829 8.58891,-0.24755 17.07808,2.29459 26.13086,5.74024 15.9326,6.14789 32.69674,14.09118 51.72461,20.20898 19.28997,6.15564 39.69933,8.73855 61.58984,9.9336 9.14672,0.50445 18.17802,0.41747 27.40234,0.27343 12.03998,-0.18368 23.92776,-0.55792 36.31836,-0.94336 27.42907,-0.85153 56.81356,-1.82517 85.61524,-1.67773 25.91102,0.15352 52.27495,0.74383 77.76757,5.05273 1.03173,-3.01343 2.77065,-5.6917 5.05469,-7.83203 2.61752,-2.33927 5.4376,-4.01009 8.23438,-5.21679 -3.2262,-0.70536 -6.44418,-1.31515 -9.63086,-1.8418 -27.32931,-4.59371 -54.8543,-5.05787 -81.45117,-4.83594 -29.23767,0.21922 -58.52257,1.71565 -86.16211,3.23438 -12.41268,0.68114 -24.1429,1.3623 -36.11719,1.89453 -9.16904,0.40324 -17.9109,0.77078 -26.5957,0.57617 -21.35901,-0.50385 -40.94614,-2.10176 -59.50586,-7.1582 -18.39962,-4.9711 -35.58621,-12.01896 -52.27149,-17.31446 -8.25242,-2.67189 -16.53833,-4.57727 -24.82031,-4.42968 z m 57.37305,53.81445 c -0.51108,0.003 -1.0218,0.0194 -1.53321,0.0547 2.04618,0.0609 4.02179,0.40662 6.07618,0.78125 3.03296,0.55245 6.04683,1.2224 9.21289,1.96289 8.45666,1.97813 16.74202,4.18043 26.23242,6.75976 22.55154,6.12998 43.9708,12.30824 71.54883,20.375 22.77951,6.66376 47.6274,14.02266 73.40625,21.91016 9.3022,2.84629 18.88811,5.80708 28.45117,8.875 6.04051,1.93939 12.15057,3.88582 18.01953,6.07031 18.15163,6.54936 37.5647,6.42906 56.36328,4.27344 1.08731,-0.11757 2.16701,-0.26101 3.25,-0.39453 0.43568,-2.30034 0.8726,-4.59974 1.31836,-6.90234 0.49647,-2.57015 1.00738,-5.13301 1.51563,-7.69727 -2.57836,0.4142 -5.1477,0.80151 -7.70118,1.11914 -17.93042,2.10085 -35.22064,2.92295 -50.45898,-2.44141 -6.31155,-2.15943 -12.64223,-3.99008 -18.74024,-5.75195 -9.73863,-2.8179 -19.43874,-5.48876 -28.89453,-8.03711 -26.04065,-7.01828 -51.05977,-13.32456 -74.4375,-18.92578 -26.86338,-6.43676 -50.26627,-11.67885 -72.81836,-16.04492 -9.48532,-1.83663 -18.15502,-3.4043 -26.78906,-4.62891 -3.20598,-0.45486 -6.3058,-0.84973 -9.40234,-1.11328 -1.55198,-0.13351 -3.0859,-0.2519 -4.61914,-0.24414 z m 347.92578,6.89844 c 1.85126,3.04437 3.51889,5.89379 4.58398,8.68164 0.13608,0.46951 0.23789,0.73736 0.36133,1.09765 -1.73848,0.19633 -4.35272,0.3747 -7.72266,1.27149 -2.0307,0.33751 -4.48845,1.87427 -6.92382,4.79883 -2.10161,3.99802 -2.48402,7.3727 -1.67774,9.625 0.77197,3.82552 1.86087,7.21363 2.81055,10.25781 0.51284,2.08769 1.07103,3.50428 1.12109,4.2793 -1.55823,1.20514 -4.66134,1.5286 -8.46094,2.29101 -2.45546,0.37369 -4.88322,0.7824 -7.29882,1.20508 -0.14952,1.74066 -0.29376,3.47033 -0.45118,5.22656 -0.28373,3.16687 -0.5896,6.44633 -0.91015,9.78906 3.60708,-0.61218 7.20291,-1.19287 10.78711,-1.6914 4.04644,-0.37992 9.12753,-1.35038 14.38281,-4.37695 3.65556,-2.26874 6.15948,-6.14945 6.77539,-11.06446 0.0873,-4.37911 -0.79381,-7.72126 -1.625,-9.99804 -0.65674,-2.23711 -1.29747,-4.30491 -1.79101,-6.2461 1.38943,-0.12282 3.19684,-0.27131 5.4707,-0.73437 1.78292,-0.21506 4.13066,-1.12825 6.75781,-3.02735 2.78457,-2.57272 4.24927,-5.613 4.38477,-8.67578 0.0964,-4.11866 -0.7504,-7.3405 -1.79688,-9.57031 -0.43458,-1.09971 -0.94608,-2.08771 -1.43164,-3.11524 a 24.430078,5.7708842 0 0 1 -8.54101,0.36719 24.430078,5.7708842 0 0 1 -8.80469,-0.39062 z m 3.5,22.48633 c -0.004,0.007 -0.0444,0.0802 -0.0938,0.17773 -0.002,-0.0101 -0.004,-0.0211 -0.006,-0.0312 0.073,-0.1027 0.10398,-0.1542 0.0996,-0.14648 z"
         transform="scale(0.26458333)" />
      <path
         style="fill:#000000;fill-opacity:1;stroke-width:0.264583"
         d="m 46.848139,165.13471 c 0.09947,-2.12279 0.463305,-4.42147 0.394918,-6.78353 0,0 0,0 0,0 -0.06435,-2.89127 -0.643236,-5.30064 -0.23871,-7.31395 0,0 0,0 0,0 0.150905,-0.87566 0.556772,-1.68158 1.120877,-2.28995 0.933113,-1.03097 2.404548,-1.75805 3.433588,-2.25885 -1.110759,0.0433 -2.779117,0.24179 -4.297776,1.22021 -0.911194,0.60577 -1.720521,1.56409 -2.170352,2.78929 10e-7,0 0,0 0,0 -0.945147,2.64899 -0.662295,5.08764 -0.747238,7.85325 0,0 0,0 0,0 -0.08803,2.26521 -0.643255,4.7801 -0.667717,7.54877 -0.0018,0.20658 -5.45e-4,0.41441 0.0042,0.62348 -0.01658,1.09464 0.227216,2.37572 1.000138,3.58947 v 0 c 0.984703,1.27374 2.314695,1.89943 3.544114,2.06288 h -1e-6 c 2.321092,0.39137 4.406515,0.85357 6.748672,0.81667 0,0 0,0 10e-7,0 v 0 c 2.276931,-0.0258 4.22229,-0.93574 5.447299,-2.23722 v 0 0 0 c 0.72259,-0.67261 1.707106,-1.43344 1.701514,-2.4796 v 0 c -0.03524,-0.21258 -0.181599,-0.29989 -0.319292,-0.28559 v 0 h -10e-7 v 0 c -0.05525,0.007 -0.104431,0.0214 -0.148579,0.0382 0,0 0,0 0,0 v 0 c 0,0 -10e-7,0 -10e-7,0 -0.0089,0.0269 -0.01797,0.0526 -0.02717,0.0772 0,0 0,0 0,0 -0.0042,0.0112 -0.0092,0.0223 -0.01342,0.0331 -2.41e-4,6.1e-4 -3.02e-4,0.001 -1.72e-4,0.002 -1.3e-4,-5e-4 -6.8e-5,-10e-4 1.74e-4,-0.002 0.0043,-0.0107 0.0095,-0.0208 0.01413,-0.0303 0,0 10e-7,0 10e-7,0 0.01015,-0.0206 0.02114,-0.0384 0.03287,-0.0535 0,0 10e-7,0 10e-7,0 v 0 c 0.04638,6e-5 0.09422,0.003 0.140473,0.0131 v 0 h 10e-7 v 0 c 0.100265,0.0187 0.175247,0.11127 0.147016,0.18697 v 0 c -0.265755,0.79393 -1.28746,0.95167 -2.23583,1.67405 v 0 h -10e-7 v 0 c -1.242109,0.78621 -2.86042,1.10985 -4.633692,0.8729 v 0 c -1.893467,-0.24608 -3.936172,-0.93638 -6.281931,-1.48632 v 0 c -0.726861,-0.23098 -1.403158,-0.51145 -1.569287,-0.93478 v 0 c -0.304168,-0.37836 -0.338559,-1.09202 -0.398831,-1.93469 -0.0097,-0.43018 -8.26e-4,-0.86696 0.02004,-1.3113 z"
         id="path9438" />
      <path
         style="fill:#000000;fill-opacity:1;stroke-width:0.264583"
         d="m 27.761357,161.05035 c -0.417914,-0.14408 -0.839885,-0.28079 -1.266222,-0.40896 -0.556716,-0.20935 -0.953264,-0.27267 -1.035558,-0.4053 0,0 0,0 0,0 0.03496,-0.0152 0.08348,0.1097 0.197934,0.37199 0,0 0,1e-5 0,1e-5 0.0356,0.2985 0.03001,0.48185 -0.04488,0.58181 -0.104338,0.0197 0.13523,-0.0808 0.476452,-0.40984 0,0 1e-6,0 1e-6,0 0.539019,-0.40896 1.170649,-0.78458 1.824761,-1.1775 2.257869,-1.34758 4.155574,-2.41861 6.191605,-3.74644 3.423456,-2.23357 6.019523,-4.36785 7.836022,-6.21736 -2.182202,1.03902 -5.223397,2.61342 -8.883082,4.37473 -1.815512,0.87332 -4.396517,2.05825 -6.5066,3.14816 -0.687487,0.35236 -1.427346,0.74776 -2.161675,1.24779 0,0 -1e-6,0 -1e-6,0 -0.409715,0.20832 -0.97612,0.67166 -1.471013,1.53173 0,0 -2e-6,1e-5 -2e-6,1e-5 -0.195225,0.35893 -0.255549,0.83963 -0.148689,1.41412 0,0 1e-6,1e-5 1e-6,1e-5 0.192466,0.56784 0.452601,0.95071 0.728081,1.14492 0,0 2e-6,0 2e-6,0 0.792978,0.62888 1.55696,0.90901 2.120099,1.04048 0.679651,0.20949 1.355378,0.44252 2.030862,0.69352 4.484944,1.66581 8.977317,4.03975 13.299173,5.25984 0.401323,0.16712 1.018542,0.25071 1.755732,0.0829 0,0 3e-6,0 3e-6,0 0.636072,-0.24062 1.037317,-0.69083 1.184263,-1.22165 0.257818,-1.23949 -0.09662,-2.21575 -0.378439,-2.88508 -0.373413,-1.08306 -0.890776,-2.25854 -1.243295,-3.11774 -0.422068,-1.05873 -0.760368,-1.7863 -0.867849,-2.70172 -0.211564,0.86364 -0.119481,1.79585 0.0478,2.92903 0.146186,1.01979 0.383442,2.12075 0.558473,3.2719 0.08605,0.78715 0.28904,1.55858 0.03558,1.90254 -0.0149,-0.0372 -0.0017,-0.0563 0.118593,-0.15308 0,0 10e-7,0 10e-7,0 -0.0062,0.0311 -0.172147,-0.0963 -0.496628,-0.18378 -4.108553,-1.71901 -8.648322,-4.5555 -13.90151,-6.36703 z"
         id="path9521" />
      <path
         style="fill:#000000;fill-opacity:1;stroke-width:0.264583"
         d="m 39.513778,175.40172 c -0.113879,-0.01 -0.227758,-0.0195 -0.341644,-0.0297 -1.375369,-0.12876 -2.639653,-0.25357 -3.839967,-0.53949 -0.401577,-0.10951 -0.707051,-0.16566 -0.8963,-0.27513 0,0 0,0 0,0 -0.04862,-0.046 -0.04502,-0.004 0.03623,0.0984 0.101489,0.14688 0.112886,0.34793 0.06246,0.62654 0.553872,-2.7472 1.43014,-5.24769 1.667517,-7.04207 -0.908453,1.1316 -2.723038,3.6629 -3.758187,6.44474 -0.1017,0.45076 -0.0481,0.84704 0.151597,1.15213 0.214994,0.31777 0.426642,0.52335 0.597875,0.62284 0,0 10e-7,0 10e-7,0 0.514658,0.35415 1.025216,0.56253 1.462534,0.69997 1.393702,0.47636 2.8302,0.7148 4.268219,0.85765 0.304656,0.0315 0.610406,0.0582 0.917011,0.0801 1.390787,0.099 2.774207,0.0955 4.130751,-0.0208 1.456793,-0.11059 2.896729,-0.34633 4.233348,-0.95723 v 0 c 1.570541,-0.74815 2.833206,-1.5502 3.813713,-2.45463 v 0 c 0.278363,-0.25665 0.522211,-0.5121 0.728638,-0.77668 h 10e-7 c 0.05672,-0.0723 0.110017,-0.14438 0.158623,-0.21744 v 0 c 0,0 0,0 0,0 -0.0055,-0.0494 -0.006,-0.0925 -0.0023,-0.13146 0,0 0,0 0,0 4.1e-5,-4.3e-4 -3.4e-5,-7.4e-4 -2.24e-4,-9.3e-4 1.9e-4,1.9e-4 2.64e-4,5e-4 2.2e-4,9.3e-4 0,0 0,0 0,0 -0.004,0.0386 -0.01527,0.0698 -0.03334,0.0952 0,0 -10e-7,0 -10e-7,0 v 0 c -0.07833,0.0396 -0.156971,0.0755 -0.23821,0.11092 v 0 c -0.302736,0.13226 -0.603598,0.24492 -0.956317,0.37056 v 0 c -1.280232,0.45606 -2.390144,0.76725 -4.132746,1.2163 v 0 c -1.103508,0.27944 -2.251485,0.26508 -3.683167,0.2753 -1.424589,-0.007 -2.860837,-0.0802 -4.346347,-0.20598 z"
         id="path9571" />
      <path
         style="fill:#000000;fill-opacity:1;stroke-width:0.264583"
         d="m 181.33368,116.77638 c -2.44773,-0.82245 -4.5027,-1.42596 -6.1441,-1.27873 0.92305,0.82851 3.32153,2.33889 5.78291,3.14298 0.39764,0.12975 0.80121,0.24329 1.20885,0.33687 0,0 0,0 0,0 0.82326,0.1928 1.65357,0.17651 2.40265,-0.0282 1.25491,-0.36723 2.18778,-1.08621 2.71062,-1.5988 -0.75666,-0.0356 -1.83029,0.16635 -2.94643,0.1647 -0.54839,0.001 -1.11539,-0.10177 -1.68942,-0.29532 0,0 0,0 0,0 -0.44869,-0.14758 -0.86324,-0.28821 -1.32508,-0.44349 z"
         id="path10093" />
      <path
         style="fill:#000000;fill-opacity:1;stroke-width:0.264583"
         d="m 159.1821,131.00563 c -1.73282,1.42966 -3.49909,2.67762 -5.37745,3.66918 -5.25149,2.78631 -10.25729,2.86469 -13.74107,2.42957 2.90752,1.43335 8.53588,2.47356 14.75542,-0.37769 2.37748,-1.09431 4.57287,-2.5918 6.61828,-4.34627 0.67103,-0.57573 1.31772,-1.172 1.94169,-1.78067 1.48678,-1.5215 4.09069,-2.44825 6.21269,-3.63692 4.28701,-2.3572 7.09336,-5.20124 8.67623,-7.57703 -2.21756,1.69107 -5.15461,3.8135 -9.58306,5.75143 -2.02262,0.86213 -4.82458,1.72037 -7.00527,3.67813 0,0 0,0 0,0 -0.81315,0.7502 -1.64464,1.48676 -2.49746,2.19027 z"
         id="path10256"
         sodipodi:nodetypes="csc" />
      <path
         style="fill:#000000;fill-opacity:1;stroke-width:0.264583"
         d="m 203.10943,126.6727 c -1.16488,-1.34894 -2.27469,-2.81599 -3.38893,-4.23149 -4.97392,-6.32685 -9.10105,-10.70432 -12.68449,-13.64792 2.40129,3.10655 6.6437,8.51732 11.25557,14.74141 0,0 0,0 0,0 1.18034,1.59519 2.41623,3.28228 3.81441,4.85161 0.0676,0.0799 0.13648,0.16051 0.20689,0.24159 0.78191,0.90024 1.74191,1.84579 3.07383,2.37696 1.34813,0.50632 2.78547,0.97047 4.34697,1.00963 1.47917,0.006 2.82895,-0.4126 3.99889,-0.85154 0.46919,-0.18057 1.0181,-0.18065 1.46726,0.005 0.48696,0.1829 0.93814,0.57123 1.35934,0.99034 0.40135,0.40715 0.7881,0.90329 1.16568,1.36243 0.1754,0.2814 0.4884,0.72092 1.07962,0.95848 0.63989,0.10947 1.08631,-0.14949 1.33179,-0.38413 0.46979,-0.33161 0.84666,-0.74155 1.12609,-1.17942 0.30792,-0.46267 0.49391,-1.00254 0.44568,-1.53016 -0.0823,-0.64776 -0.55453,-1.07814 -0.99651,-1.29323 0.37657,0.30003 0.72703,0.79499 0.67888,1.30267 -0.0276,0.4277 -0.26408,0.81711 -0.5797,1.18689 -0.29745,0.33698 -0.66497,0.63508 -1.08517,0.85453 -0.31288,0.11933 -0.58155,0.29529 -0.63457,0.1834 -0.15601,-0.0214 -0.24245,-0.35759 -0.53095,-0.71556 -0.3159,-0.48443 -0.66727,-1.0389 -1.08848,-1.55873 -0.42303,-0.53126 -0.97017,-1.06723 -1.69632,-1.43947 -0.7646,-0.371 -1.67027,-0.4527 -2.52632,-0.19359 -1.15392,0.33258 -2.35215,0.65837 -3.4605,0.57929 -1.20948,-0.0526 -2.42439,-0.51512 -3.75301,-1.01615 -0.90652,-0.30888 -1.65055,-1.21398 -2.52417,-2.14443 -0.13498,-0.1513 -0.26885,-0.30399 -0.40178,-0.45794 z"
         id="path10396" />
      <path
         style="fill:#000000;fill-opacity:1;stroke:none;stroke-width:0.264583"
         d="m 204.11385,121.56789 c -0.10648,-0.16927 -0.2139,-0.33896 -0.32274,-0.50875 0,0 0,0 0,0 -4.26541,-6.66931 -8.99288,-12.08923 -12.13676,-15.04279 2.02203,3.34014 6.38033,9.42901 10.5498,16.05279 0,0 0,0 0,0 0.30521,0.48609 0.42055,0.67451 0.72577,1.1606 0.53188,0.84387 1.08801,1.69094 1.72869,2.50295 0.67076,0.85843 1.50206,1.62288 2.50601,2.15436 v 0 c 1.56786,0.7906 3.31361,0.85179 4.8118,0.42051 v 0 c 0.58148,-0.16664 1.0751,-0.35791 1.53178,-0.44407 v 0 c 0.41635,-0.0766 0.82427,-0.0747 1.15152,0.0693 v 0 0 0 c 1.33659,0.57622 2.66261,1.07023 3.7733,1.46198 v 0 0 0 c 0.56213,0.19834 1.09279,0.37717 1.58801,0.536 v 0 c 0.16542,0.0531 0.32674,0.10384 0.48423,0.15239 v 0 c 0,0 0,0 0,0 0.0451,0.0139 0.0898,0.0276 0.13423,0.0411 0,0 0,0 0,0 v 0 c 0,0 0,0 0,0 0.0246,-0.0126 0.049,-0.023 0.0717,-0.0317 1.8e-4,-7e-5 3e-4,-1.7e-4 3.5e-4,-2.9e-4 -5e-5,1.2e-4 -1.7e-4,2.2e-4 -3.5e-4,2.9e-4 -0.0227,0.009 -0.0451,0.0147 -0.0659,0.0187 0,0 0,0 0,0 v 0 c -0.0392,-0.0248 -0.0789,-0.0499 -0.11895,-0.0751 v 0 c -0.13866,-0.0873 -0.28274,-0.177 -0.43166,-0.26869 v 0 c -0.43738,-0.26926 -0.91715,-0.55606 -1.43815,-0.86078 v 0 0 0 c -1.02531,-0.59964 -2.20988,-1.25647 -3.48508,-1.99735 v 0 0 0 c -0.5631,-0.30487 -1.21255,-0.4153 -1.84593,-0.34733 v 0 c -0.63021,0.0632 -1.16716,0.21238 -1.70488,0.3225 v 0 c -1.20434,0.23953 -2.5495,0.11582 -3.62553,-0.53065 v 0 c -0.71095,-0.40089 -1.32368,-1.02712 -1.8787,-1.75259 -0.70898,-0.93605 -1.33033,-1.9646 -2.00257,-3.03333 z"
         id="path10446" />
      <path
         style="display:inline;fill:#000000;fill-opacity:1;stroke-width:0.264583"
         d="m 184.02665,104.74223 c -1.52076,0.87967 -2.55523,2.23996 -3.20736,3.58978 -1.09307,2.2254 -1.31953,4.41909 -1.25991,5.78715 0.50907,-0.97963 1.49181,-3.29878 2.64219,-4.99874 0.7653,-1.1124 1.70724,-2.22054 2.87306,-2.80578 0.0548,-0.0297 0.11031,-0.0581 0.16654,-0.0852 1.01203,-0.48836 2.24019,-0.55863 3.34912,-0.33543 2.01512,0.39554 4.17114,1.80777 5.2862,2.43624 -0.64826,-1.09925 -2.23686,-3.09797 -4.85199,-4.01079 -1.47852,-0.50406 -3.24882,-0.48373 -4.83054,0.32906 -0.0563,0.0305 -0.1121,0.0618 -0.16731,0.0937 z"
         id="path10722-8"
         sodipodi:nodetypes="cc" />
      <path
         style="display:inline;fill:#000000;fill-opacity:1;stroke-width:0.264583"
         d="m 186.27222,112.9999 c -0.0879,-1.3873 0.72237,-3.07593 0.76379,-4.20661 -0.85593,0.43462 -2.57397,1.84822 -2.647,4.24331 0,0 0,0 0,0 0.003,0.0674 0.007,0.13448 0.0122,0.20104 0.18954,2.30804 1.88,3.65643 2.80529,4.1154 -0.0506,-1.11793 -1.00321,-2.87084 -0.93345,-4.34024 -2.9e-4,-0.004 -5.7e-4,-0.009 -8.4e-4,-0.0129 z"
         id="path11052-1"
         sodipodi:nodetypes="cc" />
      <path
         style="fill:#000000;fill-opacity:1;stroke-width:0.264583"
         d="m 169.4349,116.36182 c -0.65318,-0.68652 -1.46591,-1.16314 -2.32037,-1.42795 0,0 0,0 0,0 -1.06727,-0.32766 -2.12065,-0.41295 -3.05609,-0.45963 0,0 0,0 0,0 -3.63663,-0.21407 -4.96197,-0.26747 -7.2766,-0.82061 1.52009,1.18153 3.74235,1.91736 7.11061,2.43176 0.90882,0.14764 1.84846,0.28284 2.64203,0.58209 0.67365,0.25347 1.29588,0.65043 1.70183,1.18252 0.0221,0.0256 0.0435,0.052 0.064,0.0791 0.35743,0.47256 0.47659,1.18218 0.43297,1.86546 0,0 0,0 0,0 -0.0665,0.89517 -0.43966,1.7955 -0.90107,2.60654 -1.40368,2.34744 -3.20555,3.51637 -4.86684,3.97266 1.56864,0.25331 4.21532,-0.44129 6.16177,-3.11521 0.66443,-0.87993 1.21956,-1.98222 1.40648,-3.25807 0.16633,-1.10083 -0.0649,-2.31848 -0.82081,-3.32151 -0.0888,-0.11011 -0.18152,-0.21585 -0.2779,-0.31717 z"
         id="path11932" />
      <path
         style="fill:#000000;fill-opacity:1;stroke-width:0.264583"
         d="m 127.79096,136.76738 c 0.36508,-1.83176 0.72192,-3.6645 1.05583,-5.50453 0.49256,-2.68056 1.02116,-5.40172 1.11191,-8.26395 -0.0128,-0.42733 0.21868,-0.91344 0.55726,-1.25306 0.45945,-0.49866 1.22661,-0.83412 2.07134,-1.151 2.45496,-0.87127 5.27465,-0.99598 7.97804,-1.06088 3.31436,-0.0627 6.58792,0.1379 9.61765,0.4129 2.73114,0.24929 5.19676,0.54114 7.58445,0.94641 1.37024,0.23905 2.52352,0.37896 3.64842,0.77993 0.26515,0.10635 0.4861,0.17552 0.60566,0.30007 0,0 0,0 0,0 0.0486,0.0362 0.0923,0.10377 0.0866,0.14937 0.0211,0.39169 -0.41808,0.83454 -0.74606,1.3253 -0.63821,0.89933 -1.19351,1.73008 -1.64878,2.60909 0.59406,-0.78877 1.24311,-1.49547 2.01422,-2.31202 0.37375,-0.38058 0.91001,-0.81807 1.07894,-1.52261 0.0451,-0.27645 -0.0312,-0.55736 -0.2119,-0.77352 0,0 0,0 0,0 -0.24609,-0.28354 -0.55384,-0.46143 -0.83522,-0.5907 -1.1754,-0.57722 -2.39056,-0.87834 -3.71151,-1.23922 -2.35767,-0.64887 -4.85733,-1.16975 -7.6165,-1.62708 -3.03488,-0.50423 -6.37427,-0.91603 -9.8516,-1.02501 -2.75855,-0.10072 -5.85442,-0.0649 -8.89833,0.85386 -1.07556,0.30881 -2.22969,0.83475 -3.24874,1.75061 -0.89641,0.84141 -1.46737,2.00762 -1.54919,3.30696 -0.12559,2.52734 -0.67891,5.06864 -1.19665,7.79714 -0.48497,2.52413 -0.99655,5.0253 -1.50732,7.58052 -0.20281,1.01494 -0.40395,2.03084 -0.60085,3.04861 -0.62748,3.23701 -1.2383,6.45043 -1.61736,9.74111 v 0 0 0 c -0.13186,1.11556 -0.24329,2.28348 -0.21177,3.50827 0,0 0,1e-5 0,1e-5 0.005,0.39557 0.0422,0.85614 0.15521,1.36793 0,0 0,0 0,0 0.005,0.30329 0.22587,0.78973 0.73345,1.36813 v 0 c 0.41036,0.35769 0.81252,0.85645 1.2783,1.39444 v 0 c 0.30686,0.40731 0.78985,0.97497 1.588,1.4839 0.32156,0.23379 0.8371,0.35223 1.50924,0.29288 v 0 c 0.7181,-0.20584 1.17601,-0.53164 1.37797,-0.87932 v 0 0 0 c 0.81983,-1.16989 1.06249,-2.34466 1.19718,-3.22841 v 0 c 0.50934,-2.44723 0.79073,-4.94151 1.0642,-7.18656 v 0 0 0 c 0.43273,-3.52961 0.78937,-6.97733 1.0824,-10.06549 v 0 0 0 c 0.30073,-3.16859 0.55919,-6.30541 0.75655,-8.87671 v 0 0 0 c 0.0761,-0.9912 0.13228,-1.78978 0.21012,-2.69379 v 0 c 0.0203,-0.23414 0.0379,-0.45606 0.0678,-0.67847 v 0 0 0 c -0.004,-0.0412 -0.0117,-0.0761 -0.0103,-0.10431 0,0 0,0 0,0 0,0 -2e-5,0 -2e-5,0 -0.0703,-0.0293 -0.11445,-0.054 -0.1269,-0.0626 -0.01,-0.007 -0.009,0.003 0.006,0.0129 -0.0142,-0.01 -0.0136,-0.0199 -0.003,-0.0136 0.013,0.008 0.0559,0.0316 0.11954,0.0583 0,0 0,1e-5 0,1e-5 0,0 0,0 0,0 -0.007,0.0241 -0.01,0.0604 -0.0172,0.10243 0,0 0,0 0,0 v 0 c -0.067,0.21486 -0.1214,0.43352 -0.17869,0.66221 v 0 c -0.21088,0.84177 -0.39965,1.69117 -0.60513,2.64053 v 0 0 0 c -0.56641,2.61711 -1.1157,5.42636 -1.73849,8.74178 v 0 h -1e-5 v 0 c -0.57413,3.05661 -1.17345,6.39161 -1.82853,9.93177 -0.41168,2.22086 -0.81996,4.67759 -1.40036,6.93113 v 0 c -0.28574,0.93668 -0.40949,1.75924 -0.78252,2.09531 v 0 h -1e-5 v 0 c -0.0635,-0.0111 0.0419,-0.0325 0.32686,-0.16123 0.2879,0.005 0.4144,-0.006 0.40645,0.0327 -0.17412,-0.0627 -0.38025,-0.4233 -0.79076,-0.88439 v 0 c -0.41387,-0.52505 -0.88341,-1.12853 -1.4914,-1.71805 v 0 c 0.17571,0.26953 0.24941,0.28033 0.16121,0.1488 0,0 0,0 0,0 v 0 c -0.0436,-0.18707 -0.0457,-0.44504 -0.0524,-0.7661 0,0 0,-1e-5 0,-1e-5 -0.006,-0.96862 0.12512,-1.98495 0.27003,-3.07098 v 0 c 0.42904,-3.1392 1.06896,-6.24914 1.71905,-9.50239 0.4448,-2.22147 0.59271,-2.93794 1.03751,-5.1594 z"
         id="path11982" />
      <path
         id="path12328"
         d="m 132.0073,140.4287 a 2.0693619,4.2826796 0 0 1 -5e-5,0.0312 l -2.06931,-0.0312 z" />
      <path
         id="path12330"
         d="m 135.10235,147.95038 a 1.8174397,1.4035672 0 0 1 -5e-5,0.0102 l -1.81739,-0.0102 z" />
      <path
         style="fill:#000000;fill-opacity:1;stroke-width:0.264583"
         d="m 144.22694,123.50412 c -2.19092,0.0666 -4.30923,0.27135 -6.31175,0.63438 0,0 0,0 0,0 -1.15354,0.21008 -2.38583,0.48318 -3.35308,0.69423 -0.5414,0.0977 -0.88566,0.23654 -1.23305,0.20786 -0.13319,0.036 -0.33708,-0.0975 -0.56365,-0.23391 -0.51404,-0.34382 -1.00542,-0.59953 -1.46859,-0.77631 0.32905,0.37067 0.65739,0.7689 1.02283,1.25808 0.16031,0.22344 0.39264,0.48849 0.79698,0.65243 0,0 0,0 0,0 0.54334,0.18846 1.08471,0.185 1.57864,0.18283 1.10136,0.0179 2.19498,-0.0303 3.44532,-0.0919 2.2393,-0.11008 4.21522,-0.16635 6.67873,-0.22613 1.75605,-0.043 3.50934,-0.0827 5.18396,-0.14837 0,0 0,0 0,0 1.66289,-0.0643 4.09823,-0.18607 5.36018,-0.25185 0,0 0,0 0,0 0.7254,-0.0373 1.23516,-0.0686 1.85298,-0.0844 0.41927,-0.001 0.70725,-0.0455 1.04026,0.0413 -0.24258,-0.23094 -0.58549,-0.3571 -0.96824,-0.49645 -0.55131,-0.20356 -1.15299,-0.36625 -1.84212,-0.51842 0,0 0,0 0,0 -1.57701,-0.3485 -3.3689,-0.57974 -5.41823,-0.7197 0,0 0,0 0,0 -1.84412,-0.12736 -3.80957,-0.18402 -5.80117,-0.12373 z"
         id="path12763" />
      <path
         style="fill:#000000;fill-opacity:1;stroke-width:0.264583"
         d="m 122.01814,163.93761 c -0.19859,-0.22041 -0.22514,-0.78182 -0.27117,-1.37219 -0.0179,-1.05545 0.28806,-2.17715 0.45257,-3.01486 -0.80529,0.22747 -1.94415,1.07223 -2.42654,2.69829 -0.29158,0.83959 -0.30089,1.97624 0.39852,3.07552 0.0507,0.0586 0.10297,0.11452 0.15652,0.16776 0.84834,0.84295 1.97667,0.97109 2.88005,0.51855 1.76723,-1.02842 2.12341,-2.63366 2.15245,-3.61929 -0.86285,0.41625 -1.92726,1.50619 -2.99426,1.67886 -0.19894,0.005 -0.40127,-0.0594 -0.31944,-0.10387 0,0 0,0 0,0 -0.01,-0.009 -0.0196,-0.0186 -0.0287,-0.0288 z"
         id="path12945" />
      <path
         style="fill:#000000;fill-opacity:1;stroke-width:0.264583"
         d="m 117.63325,169.14834 c -0.002,-0.003 -0.004,-0.007 -0.006,-0.0101 0,0 0,0 0,0 -0.28999,-0.26788 -0.43307,-0.85776 -0.52326,-1.44986 -0.11826,-0.97486 0.13601,-2.03576 0.31063,-2.84402 -0.77083,0.21422 -1.88894,1.05496 -2.24725,2.69026 -0.22315,0.93107 -0.0888,2.09405 0.70167,3.10829 0.0981,0.10789 0.20194,0.20739 0.31074,0.29825 0.82917,0.69207 1.89405,0.84674 2.82132,0.51558 1.87348,-0.80864 2.39355,-2.3873 2.48908,-3.36178 -0.87584,0.36995 -2.01662,1.32783 -3.07877,1.35472 -0.29571,0.0153 -0.67006,-0.1208 -0.77836,-0.30131 z"
         id="path12995" />
      <path
         style="fill:#000000;fill-opacity:1;stroke-width:0.264583"
         d="m 106.76504,179.62771 c -0.21371,-0.16673 -0.42818,-0.34293 -0.64321,-0.52248 -0.0453,-0.0463 -0.14773,-0.13477 -0.0864,0.002 0.0852,-0.38291 0.60264,-0.79513 1.13242,-1.36356 0,0 0,0 0,0 3.10666,-3.05647 5.14411,-4.93847 6.68047,-7.19541 -1.46586,0.83562 -5.24241,3.2515 -8.1024,5.62999 0,0 0,0 0,0 -0.56901,0.42614 -1.2989,1.04254 -1.79857,2.06877 -0.30854,1.01956 -0.0361,1.97857 0.64388,2.5798 0.37496,0.35505 0.78889,0.70116 1.24512,1.01422 0.70312,0.4823 1.49931,0.88086 2.39146,1.11166 0.53122,0.21668 1.33017,0.17608 2.17294,-0.32531 0.81078,-0.84388 0.95925,-1.73266 0.78947,-2.32744 -0.17866,-1.10453 0.31556,-2.32935 0.95729,-3.29099 0.99004,-1.45824 2.61428,-2.79838 3.51956,-3.60191 -1.16559,0.32196 -3.08136,1.05898 -4.6774,2.62709 -1.02559,1.00498 -1.90246,2.54079 -1.87708,4.41421 -0.10036,0.38113 -0.0349,0.65898 -0.0329,0.42397 0.16735,0.008 7.3e-4,-0.11308 -0.2898,-0.11186 -0.68914,-0.1788 -1.35087,-0.60717 -2.02486,-1.13312 z"
         id="path13078" />
      <path
         style="fill:#000000;fill-opacity:1;stroke:none;stroke-width:0.264583"
         d="m 128.19537,105.40974 c -11.05616,4.39903 -19.43425,6.93106 -25.99289,8.86684 6.13929,-1.20557 15.86475,-3.82157 27.3214,-8.44212 3.15147,-1.27114 6.20859,-2.60162 9.14466,-3.96281 0,0 0,0 0,0 4.26342,-1.976385 7.9498,-3.870367 11.1031,-5.636582 0,0 0,-10e-7 0,-10e-7 1.15708,-0.6481 2.18348,-1.245666 3.12866,-1.823082 0.30941,-0.189021 0.60087,-0.370082 0.88442,-0.551923 0.14032,-0.08998 0.27454,-0.173007 0.40534,-0.268534 -0.13917,0.08312 -0.2777,0.152346 -0.4274,0.230833 -0.298,0.156239 -0.5977,0.309919 -0.92568,0.476958 -0.98824,0.503313 -2.01008,1.013004 -3.23495,1.613456 0,0 0,10e-7 0,10e-7 -3.2265,1.581671 -6.86761,3.30195 -11.25986,5.238074 0,0 0,0 0,0 -3.25975,1.43678 -6.63461,2.86154 -10.1468,4.25889 z"
         id="path16931" />
      <path
         style="fill:#000000;fill-opacity:1;stroke:none;stroke-width:0.264583"
         d="m 203.39108,93.402765 c 0.38814,-1.498889 0.51211,-2.960673 0.42093,-3.820924 -0.45025,0.744851 -0.90176,2.159977 -1.31748,3.740558 -0.13263,0.504827 -0.26274,1.031345 -0.37388,1.50809 -0.22276,0.944955 -0.30571,1.676871 -0.18969,2.276376 0.082,-0.167343 0.68996,-1.488402 0.91683,-2.047848 0.21003,-0.516888 0.3929,-1.075856 0.54329,-1.656252 z"
         id="path17113" />
      <path
         style="fill:#000000;fill-opacity:1;stroke:none;stroke-width:0.264583"
         d="m 194.04023,94.326125 c -0.4229,-0.324463 -0.90521,-0.520478 -1.36898,-0.635554 -1.48249,-0.384753 -3.00283,-0.336243 -3.7948,-0.243003 0.76232,0.300658 2.13964,0.550581 3.5568,1.042026 0.44552,0.161629 0.8853,0.35557 1.19771,0.639865 0.0543,0.04936 0.10482,0.101496 0.15121,0.156817 0.35033,0.382837 0.60739,0.915169 0.93904,1.412996 0.71263,1.078165 1.51787,1.839086 2.12637,2.259017 -0.31899,-0.620747 -0.90265,-1.538992 -1.46375,-2.648011 -0.23613,-0.473455 -0.49535,-1.079732 -0.93577,-1.60594 -0.12581,-0.141274 -0.26281,-0.266925 -0.40783,-0.378213 z"
         id="path17163" />
      <path
         style="fill:#000000;fill-opacity:1;stroke:none;stroke-width:0.264583"
         d="m 179.65051,89.771746 c -0.26616,-0.63636 -0.55884,-1.257902 -0.88073,-1.861998 -1.42578,-2.655605 -4.17028,-5.658342 -5.09226,-6.694078 0.81171,1.552719 2.81544,4.044186 4.33121,7.089255 0.35416,0.705469 0.67701,1.429792 0.97627,2.17635 1.50011,3.741193 2.33045,7.74423 2.99501,9.890165 -0.10893,-1.985177 -0.65059,-6.584906 -2.3295,-10.599694 z"
         id="path17213" />
      <path
         style="fill:#000000;fill-opacity:1;stroke:none;stroke-width:0.264583"
         d="m 166.46932,90.045984 c -0.343,-1.729527 -0.4046,-3.51672 -0.52368,-4.537344 -0.42667,0.945855 -0.75806,2.821286 -0.30608,4.894567 0.43085,1.974443 1.41553,3.39104 2.2979,4.074804 -0.47847,-1.21948 -1.03799,-2.261554 -1.46814,-4.432027 z"
         id="path17263" />
      <path
         style="fill:#000000;fill-opacity:1;stroke:none;stroke-width:0.264583"
         d="m 174.10252,92.128464 c -0.16311,-0.420807 -0.3305,-0.838945 -0.50182,-1.253803 0,0 0,0 0,0 -1.65823,-4.032101 -3.04245,-6.579113 -4.80979,-8.438285 1.00798,1.724224 2.52605,5.038882 3.99891,8.766323 0.21477,0.545966 0.42726,1.093783 0.63854,1.646876 1.55069,4.058308 2.8633,8.129675 3.6659,10.373235 -0.27485,-2.44091 -1.2215,-6.526441 -2.99174,-11.094346 z"
         id="path17313" />
      <path
         style="fill:#000000;fill-opacity:1;stroke:none;stroke-width:0.264583"
         d="m 72.833262,121.67686 c -4.863094,-0.35293 -9.592186,-0.75838 -14.272334,-1.26839 -3.257534,-0.35511 -6.313567,-0.73724 -9.326297,-1.26737 -2.192509,-0.38823 -4.192586,-0.75378 -6.077894,-1.51578 -4.254079,-1.73716 -7.522439,-3.30998 -11.200287,-2.70047 -0.801214,0.12407 -1.556186,0.5952 -1.733639,1.33424 -0.207318,0.97368 0.292715,1.93419 0.705659,2.65998 -0.363086,-0.72848 -0.820229,-1.72416 -0.572317,-2.62755 0.169861,-0.65658 0.884251,-1.03544 1.634369,-1.13882 3.60129,-0.4687 6.567349,1.14486 10.945981,3.00256 1.934349,0.82761 3.971154,1.24803 6.17217,1.67027 3.014135,0.58125 6.084409,1.00653 9.360171,1.39466 5.255481,0.62289 10.604468,1.09038 16.118825,1.47122 2.63996,0.18228 5.274399,0.34173 7.888262,0.48693 0,0 3e-6,0 3e-6,0 8.593561,0.47747 16.676484,0.75441 23.815856,0.89633 6.33262,0.12595 10.5922,0.17558 14.91899,0.0396 -4.92075,-0.11577 -7.63499,-0.25771 -14.90213,-0.57667 -7.066546,-0.31029 -15.08241,-0.69245 -23.7827,-1.22229 -10e-7,0 -2e-6,0 -3e-6,0 -3.203269,-0.19512 -6.44319,-0.40254 -9.692685,-0.63841 z"
         id="path17363" />
    </g>
    <path
       style="fill:#000000;fill-opacity:1;stroke:none;stroke-width:0.264583"
       id="path17769"
       d="m 7.0257131,200.9723 c 3.7629769,-0.38366 7.4235059,-1.54987 11.0750659,-2.4819 1.61743,-0.41284 3.2386,-0.81088 4.857901,-1.21632 8.315391,-1.99666 16.479172,-4.54379 24.666542,-6.99658 3.455731,-0.99314 6.952162,-1.84029 10.406179,-2.83942 0.940495,-0.27205 1.886222,-0.53095 2.809097,-0.85783 2.165088,-0.76685 2.942523,-1.23173 4.973857,-2.24695 4.924366,-2.53415 9.494639,-5.66022 14.112742,-8.69532 1.540341,-0.83684 2.769955,-2.13911 4.293275,-2.9913 -0.964676,0.5632 -1.929352,1.1264 -2.894031,1.6896 0,0 3.050442,-2.45078 3.050442,-2.45078 v 0 c -1.268833,0.7235 -2.537669,1.44699 -3.806502,2.17049 -1.410989,0.91666 -2.645291,2.09069 -4.108379,2.93677 -1.60697,1.07465 -3.208086,2.15707 -4.830241,3.20887 -0.622403,0.40355 -1.29545,0.73637 -1.872461,1.20253 -0.293937,0.23747 1.336524,-0.70404 1.013243,-0.50839 -0.714547,0.43246 -1.459138,0.8132 -2.188708,1.2198 -1.985764,1.02051 -2.857743,1.54324 -4.975854,2.3233 -0.939041,0.34583 -1.901889,0.62396 -2.860593,0.91081 -3.452916,1.03312 -6.958505,1.87816 -10.428846,2.84841 -8.252833,2.48391 -16.449323,5.18013 -24.846192,7.15553 -1.592425,0.38414 -3.18504,0.7675 -4.777275,1.15244 -3.450488,0.83418 -6.923947,1.82108 -10.47081,2.14243 0,0 -3.1984519,2.32381 -3.1984519,2.32381 z" />
    <path
       style="fill:#000000;fill-opacity:1;stroke:none;stroke-width:0.264583"
       id="path17771"
       d="m 143.62748,145.07165 c 2.68123,-0.57255 5.38566,-1.02909 8.05891,-1.64016 1.96238,-0.44857 3.42703,-0.8513 5.36102,-1.36153 2.03272,-0.5534 4.03939,-1.23323 5.96602,-2.08978 1.73242,-0.7702 3.39471,-1.70941 5.06324,-2.60542 4.51598,-2.42886 9.10117,-4.7606 13.39085,-7.58241 0.29797,-0.22743 1.21035,-0.91514 1.53857,-1.19494 0.18299,-0.156 0.33707,-0.34557 0.52889,-0.49057 0.15826,-0.11964 0.34327,-0.19899 0.51491,-0.29848 0,0 -3.63344,1.41795 -3.63344,1.41795 v 0 c -0.84432,0.62027 -1.59162,1.36274 -2.47049,1.94094 -2.61499,1.71116 0.13324,-0.1232 0.72694,-0.30161 0.60713,-0.18245 -1.0921,0.64428 -1.64473,0.9549 -2.01008,1.12978 -4.06847,2.1697 -6.09982,3.25993 -1.6626,0.8887 -3.31455,1.83699 -5.02884,2.62455 -1.94724,0.89459 -3.97824,1.61486 -6.03651,2.2046 -1.82754,0.49587 -3.52276,0.9754 -5.37293,1.39536 -2.55238,0.57936 -5.139,0.97978 -7.7212,1.39684 0,0 -3.14139,2.36983 -3.14139,2.36983 z" />
    <path
       style="fill:#000000;fill-opacity:1;stroke:none;stroke-width:0.264583"
       id="path18128"
       d="m 213.5504,112.05739 c 5.84288,-1.96983 11.75323,-3.73755 17.57711,-5.76493 3.29556,-1.14724 6.37896,-2.34006 9.63788,-3.57515 7.21012,-2.878347 14.29709,-6.071657 21.29193,-9.438589 2.06932,-0.904367 4.07651,-1.956575 6.16411,-2.819624 0.3464,-0.143209 0.6797,-0.341432 1.04916,-0.404662 0.23411,-0.04007 0.4699,0.06965 0.70484,0.104479 0.0357,0.339722 0.12277,0.677941 0.10701,1.019169 -0.0546,1.182915 -0.43056,2.859934 -0.67657,3.985948 -0.44094,2.018202 -0.96958,4.013762 -1.48846,6.012789 -0.34662,2.00648 -1.17664,4.08367 -0.71159,6.14171 0.19062,0.84358 0.42321,1.11912 0.84489,1.83603 1.69619,2.54329 0.0995,4.7578 -1.30326,6.98814 -1.86902,2.85679 -0.76402,4.14128 1.17708,6.39736 0.097,0.29375 0.30285,0.5721 0.2911,0.88123 -0.0323,0.84979 -2.47456,3.68922 -3.08524,4.54989 -0.64794,1.24929 -0.93024,2.6299 -1.72172,3.81517 -1.35014,2.02187 -3.27916,3.67089 -5.02423,5.33131 -2.84592,2.33286 -5.46521,4.90589 -8.13087,7.43359 -1.07697,0.88156 -0.48144,0.47109 -1.80494,1.20433 0,0 3.63913,-1.40058 3.63913,-1.40058 v 0 c 1.30364,-0.814 0.72022,-0.37536 1.77061,-1.28839 2.6066,-2.5361 5.24235,-5.0337 8.0195,-7.38672 1.77735,-1.70623 3.69092,-3.39162 5.04304,-5.47909 0.72548,-1.12003 0.78868,-1.6915 1.30765,-2.83666 0.14715,-0.3247 0.32779,-0.63316 0.49169,-0.94975 0.83075,-1.15372 3.0056,-3.4735 2.92252,-4.887 -0.0209,-0.35683 -0.24572,-0.67134 -0.36856,-1.00701 -1.93619,-2.22334 -2.79835,-3.14281 -0.97748,-5.9457 1.43356,-2.37344 2.88933,-4.74144 1.14797,-7.3857 -0.38949,-0.64589 -0.61902,-0.91369 -0.78745,-1.67995 -0.4396,-1.99994 0.39931,-4.04176 0.72321,-5.988927 0.50372,-2.0026 1.02407,-4.000636 1.46037,-6.019462 0.19386,-0.897097 0.70173,-3.178017 0.68188,-4.149662 -0.0101,-0.486664 -0.20812,-0.951026 -0.31215,-1.426538 -0.28887,-0.09262 -0.56388,-0.297011 -0.86662,-0.277863 -0.22592,0.01429 -2.20406,0.88441 -2.30481,0.930349 -1.68142,0.766625 -3.34015,1.585632 -5.02601,2.343235 -7.03057,3.436649 -14.16744,6.675721 -21.43058,9.589588 -2.99769,1.14467 -6.64919,2.56255 -9.66565,3.61577 -5.70606,1.99233 -11.50028,3.72141 -17.26455,5.53353 0,0 -3.10194,2.39834 -3.10194,2.39834 z" />
  </g>
</svg>
