<svg width="800" height="320" xmlns="http://www.w3.org/2000/svg">
 <g id="Layer_1">
  <title>Layer 1</title>
  <text font-weight="bold" xml:space="preserve" text-anchor="start" font-family="Noto Sans JP" font-size="24" id="svg_1" y="194.5" x="334" stroke-width="0" stroke="#000" fill="#000000">Struct_Time</text>
  <text font-weight="bold" xml:space="preserve" text-anchor="start" font-family="Noto Sans JP" font-size="24" id="svg_2" y="95.5" x="355.77344" stroke-width="0" stroke="#000" fill="#000000">Number</text>
  <text font-weight="bold" xml:space="preserve" text-anchor="start" font-family="Noto Sans JP" font-size="24" id="svg_3" y="302.5" x="366.60156" stroke-width="0" stroke="#000" fill="#000000">String</text>
  <text font-style="italic" font-weight="bold" xml:space="preserve" text-anchor="start" font-family="Noto Sans JP" font-size="30" id="svg_4" y="40.5" x="36" stroke-width="0" stroke="#000" fill="#000000">time module</text>
  <text xml:space="preserve" text-anchor="start" font-family="Noto Sans JP" font-size="24" id="svg_6" y="122.5" x="516" stroke-width="0" stroke="#000" fill="#000000">time.localtime(n)</text>
  <text xml:space="preserve" text-anchor="start" font-family="Noto Sans JP" font-size="24" id="svg_7" y="146.5" x="516" stroke-width="0" stroke="#000" fill="#000000">time.gmtime(n)</text>
  <path stroke="#0000ff" id="svg_11" d="m506.66499,145.56165c0,-14.11981 -17.90861,-25.5662 -40,-25.5662l0,-20.45296l0,0c22.09139,0 40,11.44638 40,25.5662l0,20.45296c0,11.65815 -12.33926,21.83983 -30,24.75437l0,10.22648l-10,-19.64113l10,-21.26479l0,10.22648l0,0c11.90877,-1.96529 21.74088,-7.32301 26.66061,-14.52789" fill="none"/>
  <path stroke="#0000ff" id="svg_12" d="m506.66502,255.56165c0,-14.11981 -17.90861,-25.5662 -40,-25.5662l0,-20.45296l0,0c22.09139,0 40,11.44638 40,25.5662l0,20.45296c0,11.65815 -12.33926,21.83984 -30,24.75437l0,10.22649l-10,-19.64113l10,-21.2648l0,10.22649l0,0c11.90877,-1.96529 21.74088,-7.32301 26.66061,-14.52789" fill="none"/>
  <path stroke="#0000ff" id="svg_13" d="m284.66493,134.68267c0,14.9914 19.25176,27.14435 43,27.14435l0,21.71548l0,0c-23.74824,0 -43,-12.15294 -43,-27.14435l0,-21.71548c0,-12.37778 13.2647,-23.18797 32.25,-26.28241l0,-10.85775l10.75,20.85354l-10.75,22.57743l0,-10.85775l0,0c-12.80193,2.0866 -23.37145,7.77504 -28.66016,15.42467" fill="none"/>
  <path stroke="#0000ff" id="svg_14" d="m285.66496,240.68267c0,14.9914 18.80404,27.14435 42,27.14435l0,21.71548l0,0c-23.19596,0 -42,-12.15294 -42,-27.14435l0,-21.71548c0,-12.37778 12.95622,-23.18796 31.5,-26.2824l0,-10.85775l10.5,20.85353l-10.5,22.57744l0,-10.85775l0,0c-12.5042,2.0866 -22.82792,7.77504 -27.99363,15.42466" fill="none"/>
  <path transform="rotate(-125.679 420.06 53.3758)" stroke="#0000ff" id="svg_15" d="m417.83558,39.50509l0,-3.98462l-12.09272,12.3417l12.09272,12.34181l0,-4.27556c3.28143,-0.00271 9.0422,0.49299 9.0422,4.00616c0,4.90872 -6.01645,7.52738 -6.01645,7.52738l0,3.76365c0,0 13.51519,0.81629 13.51519,-17.34475c0,-14.26804 -11.57525,-14.8042 -16.54094,-14.37578z" fill="none"/>
  <text xml:space="preserve" text-anchor="start" font-family="Noto Sans JP" font-size="24" stroke-width="0" id="svg_16" y="34.5" x="443" stroke="#0000ff" fill="#000000">time.time()</text>
  <text xml:space="preserve" text-anchor="start" font-family="Noto Sans JP" font-size="24" id="svg_17" y="248.5" x="516" stroke-width="0" stroke="#ff0000" fill="#000000">time.strftime(format, struct)</text>
  <text xml:space="preserve" text-anchor="start" font-family="Noto Sans JP" font-size="24" id="svg_18" y="254.5" x="12" stroke-width="0" stroke="#ff0000" fill="#000000">time.strptime(date, format)</text>
  <text xml:space="preserve" text-anchor="start" font-family="Noto Sans JP" font-size="24" stroke-width="0" id="svg_19" y="142.5" x="25.29688" stroke="#0000ff" fill="#000000">time.mktime(struct_time)</text>
 </g>
</svg>