<?xml version="1.0" encoding="UTF-8" standalone="no"?>
<!-- Created with Inkscape (http://www.inkscape.org/) -->

<svg
   width="297mm"
   height="210mm"
   viewBox="0 0 297 210"
   version="1.1"
   id="svg5"
   xml:space="preserve"
   inkscape:version="1.2.2 (732a01da63, 2022-12-09)"
   sodipodi:docname="LEPIDOPTERA.svg"
   xmlns:inkscape="http://www.inkscape.org/namespaces/inkscape"
   xmlns:sodipodi="http://sodipodi.sourceforge.net/DTD/sodipodi-0.dtd"
   xmlns="http://www.w3.org/2000/svg"
   xmlns:svg="http://www.w3.org/2000/svg"><sodipodi:namedview
     id="namedview7"
     pagecolor="#ffffff"
     bordercolor="#666666"
     borderopacity="1.0"
     inkscape:showpageshadow="2"
     inkscape:pageopacity="0.0"
     inkscape:pagecheckerboard="0"
     inkscape:deskcolor="#d1d1d1"
     inkscape:document-units="mm"
     showgrid="false"
     inkscape:zoom="1.0544998"
     inkscape:cx="370.31777"
     inkscape:cy="403.0347"
     inkscape:window-width="1920"
     inkscape:window-height="1017"
     inkscape:window-x="-8"
     inkscape:window-y="-8"
     inkscape:window-maximized="1"
     inkscape:current-layer="layer2" /><defs
     id="defs2"><inkscape:path-effect
       effect="powerstroke"
       id="path-effect2038"
       is_visible="true"
       lpeversion="1"
       offset_points="0.20340728,-0.43008347 | 1.0104322,-0.61241097 | 1.8082034,-0.12867667"
       not_jump="false"
       sort_points="true"
       interpolator_type="CentripetalCatmullRom"
       interpolator_beta="0.2"
       start_linecap_type="zerowidth"
       linejoin_type="round"
       miter_limit="4"
       scale_width="1"
       end_linecap_type="zerowidth" /><inkscape:path-effect
       effect="powerstroke"
       id="path-effect2034"
       is_visible="true"
       lpeversion="1"
       offset_points="0,0.033161403"
       not_jump="false"
       sort_points="true"
       interpolator_type="CubicBezierJohan"
       interpolator_beta="0.2"
       start_linecap_type="zerowidth"
       linejoin_type="extrp_arc"
       miter_limit="4"
       scale_width="1"
       end_linecap_type="zerowidth" /><inkscape:path-effect
       effect="powerstroke"
       id="path-effect2030"
       is_visible="true"
       lpeversion="1"
       offset_points="0,0.033161403"
       not_jump="false"
       sort_points="true"
       interpolator_type="CubicBezierJohan"
       interpolator_beta="0.2"
       start_linecap_type="zerowidth"
       linejoin_type="extrp_arc"
       miter_limit="4"
       scale_width="1"
       end_linecap_type="zerowidth" /><inkscape:path-effect
       effect="powerstroke"
       id="path-effect2022"
       is_visible="true"
       lpeversion="1"
       offset_points="1,0.6015931"
       not_jump="false"
       sort_points="true"
       interpolator_type="CubicBezierJohan"
       interpolator_beta="0.2"
       start_linecap_type="zerowidth"
       linejoin_type="extrp_arc"
       miter_limit="4"
       scale_width="1"
       end_linecap_type="zerowidth" /><inkscape:path-effect
       effect="powerstroke"
       id="path-effect2018"
       is_visible="true"
       lpeversion="1"
       offset_points="2,0.6015931"
       not_jump="false"
       sort_points="true"
       interpolator_type="CubicBezierJohan"
       interpolator_beta="0.2"
       start_linecap_type="zerowidth"
       linejoin_type="extrp_arc"
       miter_limit="4"
       scale_width="1"
       end_linecap_type="zerowidth" /><inkscape:path-effect
       effect="powerstroke"
       id="path-effect2014"
       is_visible="true"
       lpeversion="1"
       offset_points="2,0.6015931"
       not_jump="false"
       sort_points="true"
       interpolator_type="CubicBezierJohan"
       interpolator_beta="0.2"
       start_linecap_type="zerowidth"
       linejoin_type="extrp_arc"
       miter_limit="4"
       scale_width="1"
       end_linecap_type="zerowidth" /><inkscape:path-effect
       effect="powerstroke"
       id="path-effect2010"
       is_visible="true"
       lpeversion="1"
       offset_points="1,0.6015931"
       not_jump="false"
       sort_points="true"
       interpolator_type="CubicBezierJohan"
       interpolator_beta="0.2"
       start_linecap_type="zerowidth"
       linejoin_type="extrp_arc"
       miter_limit="4"
       scale_width="1"
       end_linecap_type="zerowidth" /><inkscape:path-effect
       effect="powerstroke"
       id="path-effect2002"
       is_visible="true"
       lpeversion="1"
       offset_points="1.958089,0.6015931"
       not_jump="false"
       sort_points="true"
       interpolator_type="CubicBezierJohan"
       interpolator_beta="0.2"
       start_linecap_type="zerowidth"
       linejoin_type="extrp_arc"
       miter_limit="4"
       scale_width="1"
       end_linecap_type="zerowidth" /><inkscape:path-effect
       effect="powerstroke"
       id="path-effect1998"
       is_visible="true"
       lpeversion="1"
       offset_points="1.8756424,0.4437883"
       not_jump="false"
       sort_points="true"
       interpolator_type="CubicBezierJohan"
       interpolator_beta="0.2"
       start_linecap_type="zerowidth"
       linejoin_type="extrp_arc"
       miter_limit="4"
       scale_width="1"
       end_linecap_type="zerowidth" /><inkscape:path-effect
       effect="powerstroke"
       id="path-effect1994"
       is_visible="true"
       lpeversion="1"
       offset_points="1,0.90479505"
       not_jump="false"
       sort_points="true"
       interpolator_type="CubicBezierJohan"
       interpolator_beta="0.2"
       start_linecap_type="zerowidth"
       linejoin_type="extrp_arc"
       miter_limit="4"
       scale_width="1"
       end_linecap_type="zerowidth" /><inkscape:path-effect
       effect="powerstroke"
       id="path-effect1990"
       is_visible="true"
       lpeversion="1"
       offset_points="0.20227267,-0.34490172 | 0.51696785,-0.48039726 | 0.82241689,-0.20229011"
       not_jump="false"
       sort_points="true"
       interpolator_type="CentripetalCatmullRom"
       interpolator_beta="0.2"
       start_linecap_type="zerowidth"
       linejoin_type="round"
       miter_limit="4"
       scale_width="1"
       end_linecap_type="zerowidth" /><inkscape:path-effect
       effect="powerstroke"
       id="path-effect1986"
       is_visible="true"
       lpeversion="1"
       offset_points="0.18791374,-0.20498972 | 0.89975196,-0.41140854 | 1.6956375,-0.15923606"
       not_jump="false"
       sort_points="true"
       interpolator_type="CentripetalCatmullRom"
       interpolator_beta="0.2"
       start_linecap_type="zerowidth"
       linejoin_type="round"
       miter_limit="4"
       scale_width="1"
       end_linecap_type="zerowidth" /><inkscape:path-effect
       effect="powerstroke"
       id="path-effect1982"
       is_visible="true"
       lpeversion="1"
       offset_points="0.2,0.1322915 | 0.78491607,0.63857744 | 1.8,0.1322915"
       not_jump="false"
       sort_points="true"
       interpolator_type="CentripetalCatmullRom"
       interpolator_beta="0.2"
       start_linecap_type="zerowidth"
       linejoin_type="round"
       miter_limit="4"
       scale_width="1"
       end_linecap_type="zerowidth" /><inkscape:path-effect
       effect="powerstroke"
       id="path-effect1978"
       is_visible="true"
       lpeversion="1"
       offset_points="0,0.90479505"
       not_jump="false"
       sort_points="true"
       interpolator_type="CubicBezierJohan"
       interpolator_beta="0.2"
       start_linecap_type="zerowidth"
       linejoin_type="extrp_arc"
       miter_limit="4"
       scale_width="1"
       end_linecap_type="zerowidth" /><inkscape:path-effect
       effect="powerstroke"
       id="path-effect1970"
       is_visible="true"
       lpeversion="1"
       offset_points="6,0.40560259"
       not_jump="false"
       sort_points="true"
       interpolator_type="CentripetalCatmullRom"
       interpolator_beta="0.2"
       start_linecap_type="zerowidth"
       linejoin_type="round"
       miter_limit="4"
       scale_width="1"
       end_linecap_type="zerowidth" /><inkscape:path-effect
       effect="powerstroke"
       id="path-effect1968"
       is_visible="true"
       lpeversion="1"
       offset_points="2,0.40560259"
       not_jump="false"
       sort_points="true"
       interpolator_type="CentripetalCatmullRom"
       interpolator_beta="0.2"
       start_linecap_type="zerowidth"
       linejoin_type="round"
       miter_limit="4"
       scale_width="1"
       end_linecap_type="zerowidth" /><inkscape:path-effect
       effect="powerstroke"
       id="path-effect1912"
       is_visible="true"
       lpeversion="1"
       offset_points="0,0.90479505"
       not_jump="false"
       sort_points="true"
       interpolator_type="CubicBezierJohan"
       interpolator_beta="0.2"
       start_linecap_type="zerowidth"
       linejoin_type="extrp_arc"
       miter_limit="4"
       scale_width="1"
       end_linecap_type="zerowidth" /><inkscape:path-effect
       effect="powerstroke"
       id="path-effect1908"
       is_visible="true"
       lpeversion="1"
       offset_points="0,0.61943736"
       not_jump="false"
       sort_points="true"
       interpolator_type="CubicBezierJohan"
       interpolator_beta="0.2"
       start_linecap_type="zerowidth"
       linejoin_type="extrp_arc"
       miter_limit="4"
       scale_width="1"
       end_linecap_type="zerowidth" /><inkscape:path-effect
       effect="powerstroke"
       id="path-effect1904"
       is_visible="true"
       lpeversion="1"
       offset_points="0,0.61943736"
       not_jump="false"
       sort_points="true"
       interpolator_type="CubicBezierJohan"
       interpolator_beta="0.2"
       start_linecap_type="zerowidth"
       linejoin_type="extrp_arc"
       miter_limit="4"
       scale_width="1"
       end_linecap_type="zerowidth" /><inkscape:path-effect
       effect="powerstroke"
       id="path-effect1758"
       is_visible="true"
       lpeversion="1"
       offset_points="0.2,0.1322915 | 7.9289315,1.6098408 | 15.8,0.1322915"
       not_jump="false"
       sort_points="true"
       interpolator_type="CentripetalCatmullRom"
       interpolator_beta="0.2"
       start_linecap_type="zerowidth"
       linejoin_type="round"
       miter_limit="4"
       scale_width="1"
       end_linecap_type="zerowidth" /><inkscape:path-effect
       effect="powerstroke"
       id="path-effect1754"
       is_visible="true"
       lpeversion="1"
       offset_points="0.2,0.1322915 | 1.9686988,1.5611809 | 3.8,0.1322915"
       not_jump="false"
       sort_points="true"
       interpolator_type="CentripetalCatmullRom"
       interpolator_beta="0.2"
       start_linecap_type="zerowidth"
       linejoin_type="round"
       miter_limit="4"
       scale_width="1"
       end_linecap_type="zerowidth" /><inkscape:path-effect
       effect="powerstroke"
       id="path-effect1752"
       is_visible="true"
       lpeversion="1"
       offset_points="0.2,0.1322915 | 1.1542012,1.6438188 | 1.8,0.1322915"
       not_jump="false"
       sort_points="true"
       interpolator_type="CentripetalCatmullRom"
       interpolator_beta="0.2"
       start_linecap_type="zerowidth"
       linejoin_type="round"
       miter_limit="4"
       scale_width="1"
       end_linecap_type="zerowidth" /><inkscape:path-effect
       effect="fill_between_many"
       method="bsplinespiro"
       linkedpaths="#path1966,0,1"
       id="path-effect1972" /></defs><g
     inkscape:groupmode="layer"
     id="layer2"
     inkscape:label="Layer 2"><g
       id="g2084"><path
         style="fill:#000000;fill-rule:nonzero;stroke:none;stroke-width:0.264583px;stroke-linecap:butt;stroke-linejoin:miter;stroke-opacity:1"
         d="m 130.48022,133.40507 c 0.56145,0.28261 1.78114,0.94665 3.81567,2.36978 0.72159,0.50475 1.59289,1.13773 2.63877,1.93681 0.55029,0.42045 1.16888,0.90257 1.86255,1.45666 2.56631,2.04993 5.67639,4.69595 9.7594,8.36784 3.24669,2.91978 5.55421,5.07385 8.61701,7.8832 1.14379,1.04914 2.22051,2.02855 3.08263,2.78327 0.41189,0.36058 0.78429,0.67826 1.10126,0.93544 0.15496,0.12574 0.29854,0.23854 0.42832,0.33564 0.12718,0.0951 0.24517,0.17828 0.35008,0.2445 0.69774,0.44354 1.43615,0.87199 2.19246,1.20492 0.69718,0.3069 1.4409,0.54728 2.23584,0.6471 0.74671,0.0938 1.54118,0.0641 2.39671,-0.15006 0.80805,-0.20231 1.66419,-0.56788 2.58578,-1.14048 0.16314,-0.0997 0.31804,-0.16419 0.46539,-0.20239 0.14534,-0.0377 0.28973,-0.0515 0.43581,-0.0444 0.14522,0.007 0.29774,0.0349 0.45948,0.0854 0.16072,0.0502 0.33037,0.12269 0.50994,0.21888 0.35712,0.19128 0.73664,0.46707 1.14514,0.81928 0.401,0.34575 0.81193,0.7493 1.24326,1.19358 0.80282,0.82692 1.75913,1.89005 2.66843,2.71135 0.46121,0.41657 0.95068,0.81032 1.46282,1.12621 0.50551,0.3118 1.06034,0.56485 1.65775,0.67738 1.04133,0.19825 2.27248,0.16012 3.5541,-0.10569 1.26124,-0.26159 2.60205,-0.75031 3.88095,-1.48429 1.25951,-0.72285 2.47407,-1.69269 3.48171,-2.93062 0.99751,-1.22547 1.7909,-2.71279 2.21369,-4.46768 0.16036,-0.65707 0.41428,-1.20045 0.73568,-1.65147 0.32009,-0.44919 0.7196,-0.8243 1.1922,-1.13316 0.47297,-0.3091 1.02553,-0.55581 1.65177,-0.73885 0.62496,-0.18265 1.31713,-0.30003 2.06364,-0.3534 1.49259,-0.10672 3.16293,0.0453 4.86564,0.40639 1.69641,0.35979 3.39411,0.92071 4.93493,1.60993 1.64472,0.7346 3.19906,1.37298 4.63581,1.89211 1.43833,0.51969 2.77405,0.92546 3.9759,1.18747 1.19807,0.26119 2.32031,0.39249 3.30774,0.32272 0.50143,-0.0354 0.99374,-0.12434 1.45573,-0.29067 0.46784,-0.16845 0.91024,-0.41863 1.29009,-0.77415 0.38001,-0.3558 0.66671,-0.79127 0.87697,-1.23912 0.21324,-0.45419 0.36291,-0.95254 0.45234,-1.46518 0.18007,-1.03219 0.12895,-2.19552 -0.21622,-3.31631 -0.17572,-0.57056 -0.42932,-1.13556 -0.77227,-1.66902 -0.34667,-0.53925 -0.78172,-1.04164 -1.31177,-1.48105 -0.53576,-0.44415 -1.1577,-0.81493 -1.86439,-1.09537 -0.71349,-0.28314 -1.50257,-0.46999 -2.3642,-0.55354 -1.6446,-0.1599 -3.09404,-0.0504 -4.36606,0.1573 -1.28368,0.20959 -2.44873,0.53256 -3.37664,0.7771 -0.49368,0.1301 -0.9243,0.23986 -1.33029,0.32444 -0.41038,0.0855 -0.76488,0.13846 -1.08533,0.1579 -0.32352,0.0196 -0.60271,0.004 -0.85542,-0.0428 -0.11107,-0.0207 -0.21915,-0.048 -0.32546,-0.0824 -0.13938,-0.045 -0.2821,-0.10427 -0.42965,-0.18214 -0.62234,-0.32854 -1.24662,-0.80565 -1.7468,-1.36252 -0.24056,-0.26781 -0.44179,-0.54248 -0.5962,-0.81197 -0.15224,-0.2657 -0.25089,-0.5122 -0.30338,-0.73093 -0.0511,-0.21307 -0.0573,-0.38813 -0.0337,-0.54065 0.022,-0.14244 0.0751,-0.29214 0.18739,-0.45338 0.11533,-0.16555 0.30652,-0.36393 0.63517,-0.57663 0.32657,-0.21137 0.77967,-0.42932 1.39819,-0.62617 0.78626,-0.24909 1.45895,-0.53235 2.00823,-0.86122 0.27484,-0.16455 0.53048,-0.34746 0.75801,-0.5529 0.22675,-0.20473 0.43295,-0.43854 0.60023,-0.70569 0.1681,-0.26848 0.29307,-0.56483 0.35923,-0.88463 0.066,-0.31909 0.0678,-0.63431 0.0185,-0.93476 -0.0486,-0.29608 -0.14444,-0.56463 -0.2624,-0.80186 -0.11706,-0.23541 -0.25899,-0.44637 -0.40855,-0.6331 -0.29378,-0.36678 -0.64943,-0.68028 -1.00284,-0.94254 -0.35534,-0.26368 -0.73941,-0.49837 -1.11788,-0.70151 -0.37756,-0.20265 -0.76178,-0.38046 -1.12552,-0.52898 -0.36099,-0.14739 -0.71183,-0.27003 -1.02673,-0.36051 -0.04,-0.006 -0.12684,-0.0384 -0.24766,-0.13083 -0.11923,-0.0912 -0.2509,-0.22526 -0.3791,-0.40043 -0.26161,-0.35748 -0.44712,-0.80054 -0.51142,-1.20081 -0.0312,-0.19459 -0.0298,-0.35315 -0.0122,-0.4726 0.0169,-0.11439 0.0474,-0.18579 0.0717,-0.22646 0.0227,-0.0379 0.063,-0.0901 0.1709,-0.14052 0.11409,-0.0533 0.32046,-0.10947 0.64922,-0.11013 0.5663,0.004 1.09404,-0.0615 1.56762,-0.21951 0.48142,-0.16059 0.90964,-0.4182 1.24533,-0.78766 0.33678,-0.37066 0.53215,-0.80077 0.62605,-1.23439 0.0922,-0.42558 0.0868,-0.85228 0.0343,-1.24717 -0.0529,-0.39769 -0.15776,-0.79315 -0.28861,-1.16991 -0.13184,-0.3796 -0.2957,-0.75621 -0.47532,-1.11772 -0.36035,-0.72524 -0.80116,-1.42386 -1.22583,-2.01344 -0.18092,-0.24868 -0.30334,-0.44143 -0.3873,-0.59317 -0.084,-0.15171 -0.12147,-0.24819 -0.14136,-0.30358 -0.0198,-0.0552 -0.0254,-0.0653 -0.0313,-0.0827 -0.006,-0.0167 -0.008,-0.0474 0.0171,-0.11859 0.0265,-0.0745 0.0749,-0.1692 0.1537,-0.30615 0.0769,-0.13356 0.17636,-0.29601 0.28263,-0.48716 0.22174,-0.39882 0.44977,-0.88446 0.60641,-1.53425 0.0326,-0.1224 0.04,-0.23999 0.0326,-0.34596 -0.007,-0.10482 -0.029,-0.19825 -0.055,-0.27732 -0.0505,-0.15384 -0.12654,-0.28166 -0.19513,-0.37895 -0.0709,-0.10056 -0.1518,-0.19365 -0.23379,-0.2783 -0.0831,-0.0858 -0.175,-0.17076 -0.27259,-0.25443 -0.19481,-0.16703 -0.42874,-0.34289 -0.69295,-0.52472 -0.26632,-0.18328 -0.57116,-0.37793 -0.91048,-0.58167 -0.68159,-0.40923 -1.51425,-0.86226 -2.47657,-1.34222 -0.96951,-0.48355 -2.07404,-0.99615 -3.29524,-1.52149 -2.4696,-1.06237 -5.41032,-2.17436 -8.68617,-3.20939 -3.32527,-1.05063 -6.98012,-2.01709 -10.83662,-2.77705 -7.92841,-1.56237 -16.57472,-2.22629 -24.98049,-1.05937 -4.31279,0.59872 -8.53584,1.67556 -12.55634,3.33987 -4.10544,1.69947 -7.97681,4.00202 -11.50854,7.00672 -0.0125,0.0175 -0.0378,0.0449 -0.0698,0.0768 -0.0326,0.0326 -0.0731,0.071 -0.11886,0.11344 -0.0918,0.0851 -0.21208,0.19292 -0.33928,0.30804 -0.27441,0.24835 -0.58953,0.53835 -0.90691,0.86462 -0.33798,0.34745 -0.65977,0.7171 -0.92353,1.09711 -0.13985,0.20151 -0.26245,0.40458 -0.36242,0.60775 -0.10506,0.21349 -0.18514,0.42709 -0.23398,0.63891 -0.51208,1.97992 -0.30837,3.80471 0.0126,5.17389 0.30626,1.3066 0.77115,2.40227 1.0704,3.04383 0.47695,1.0225 0.96576,1.7524 1.08771,1.94856 -0.0679,-0.14458 -0.47877,-1.07779 -0.84379,-2.05108 -0.24585,-0.65552 -0.62764,-1.75804 -0.84373,-3.03641 -0.22829,-1.35058 -0.30494,-3.06585 0.26883,-4.86262 0.0515,-0.13718 0.12683,-0.28409 0.22752,-0.44042 0.0958,-0.1487 0.21246,-0.30271 0.34867,-0.46095 0.25758,-0.29926 0.57244,-0.59907 0.91361,-0.88619 0.31768,-0.26735 0.64086,-0.50913 0.92715,-0.70962 0.13644,-0.0956 0.25969,-0.17839 0.36796,-0.24934 0.0538,-0.0353 0.10037,-0.0653 0.14581,-0.0945 0.0394,-0.0253 0.0882,-0.0565 0.12164,-0.0788 3.4343,-2.89516 7.19457,-5.10801 11.18252,-6.73669 3.90679,-1.59554 8.01753,-2.62444 12.22712,-3.18841 8.21006,-1.09992 16.68215,-0.41524 24.4812,1.16239 3.79066,0.7668 7.38329,1.73687 10.6502,2.78949 3.21887,1.03715 6.10098,2.14791 8.51029,3.20521 1.19119,0.52274 2.26228,1.03044 3.19557,1.50645 0.92799,0.47329 1.71464,0.91267 2.34321,1.30077 0.31263,0.19302 0.58318,0.37154 0.8105,0.53333 0.22777,0.16211 0.40544,0.30269 0.53549,0.41944 0.0645,0.0579 0.11359,0.10665 0.14914,0.14582 0.0348,0.0384 0.054,0.0657 0.0555,0.0699 0.001,0.004 -0.0172,-0.0139 -0.0415,-0.0859 -0.0118,-0.035 -0.0252,-0.0868 -0.03,-0.15244 -0.005,-0.0668 -7.9e-4,-0.14776 0.0225,-0.23603 -0.13691,0.4353 -0.31603,0.74423 -0.50045,1.01147 -0.0984,0.14262 -0.18624,0.25704 -0.29555,0.40637 -0.0988,0.13498 -0.21584,0.29968 -0.31678,0.48308 -0.10351,0.18805 -0.19984,0.41236 -0.25259,0.67775 -0.0531,0.26721 -0.0557,0.54407 -0.007,0.83226 0.0474,0.28048 0.1414,0.55967 0.27017,0.84131 0.12795,0.27983 0.29639,0.5753 0.50456,0.89315 0.34655,0.53421 0.69335,1.14412 0.9608,1.74826 0.13254,0.29941 0.242,0.58935 0.32199,0.86076 0.0802,0.2722 0.12647,0.5112 0.14128,0.71153 0.0149,0.20162 -0.004,0.33667 -0.0308,0.41559 -0.0255,0.0754 -0.0438,0.0799 -0.0616,0.0881 -0.0179,0.008 -0.0513,0.0358 -0.19251,0.073 -0.14508,0.0382 -0.38152,0.0721 -0.74797,0.0576 -0.60077,-0.0189 -1.16668,0.0586 -1.67786,0.25614 -0.51924,0.20071 -0.9556,0.51586 -1.28848,0.92734 -0.32956,0.40739 -0.52664,0.87027 -0.6282,1.33115 -0.10102,0.45845 -0.10997,0.92351 -0.0608,1.36294 0.0977,0.87262 0.43513,1.74279 0.91259,2.45672 0.24287,0.36317 0.53599,0.70707 0.87711,0.99791 0.34134,0.29103 0.75228,0.54695 1.22707,0.69811 0.2032,0.0682 0.45403,0.16479 0.72965,0.28778 0.27582,0.12307 0.56341,0.26683 0.83865,0.42487 0.27826,0.15978 0.53079,0.32666 0.74069,0.49241 0.21517,0.16991 0.35726,0.31657 0.43663,0.42591 0.0379,0.0522 0.0539,0.0859 0.0561,0.0961 0.007,0.0345 -0.0159,-0.0333 -0.0201,-0.0536 -0.01,-0.0481 -0.0123,-0.11003 -6.6e-4,-0.17563 0.0118,-0.0663 0.0319,-0.10622 0.0394,-0.12282 0.006,-0.0134 -0.007,0.007 -0.0595,0.0506 -0.0542,0.0455 -0.14262,0.11044 -0.28073,0.18969 -0.28333,0.16259 -0.71871,0.35284 -1.36309,0.55011 -0.82682,0.25422 -1.54474,0.57107 -2.15247,0.95327 -0.61726,0.3882 -1.13029,0.85123 -1.51646,1.38369 -0.39586,0.54583 -0.64272,1.14147 -0.75136,1.75796 -0.10884,0.61768 -0.073,1.22756 0.0543,1.79182 0.12872,0.57067 0.35211,1.10632 0.62512,1.59277 0.27825,0.49579 0.61693,0.95651 0.98667,1.3731 0.75768,0.85366 1.6863,1.5686 2.6374,2.07218 0.31246,0.16541 0.62782,0.29771 0.94572,0.40028 0.24141,0.0779 0.48405,0.13856 0.72779,0.18359 0.55774,0.10305 1.1072,0.12169 1.64552,0.0867 0.52483,-0.0341 1.0416,-0.11947 1.54685,-0.22792 0.49484,-0.10622 0.99519,-0.23834 1.49201,-0.37316 0.97805,-0.26541 1.97512,-0.54975 3.07391,-0.73932 1.05922,-0.18274 2.22946,-0.27992 3.55176,-0.1638 0.59853,0.0523 1.1005,0.17144 1.52027,0.33162 0.41428,0.15808 0.75674,0.35919 1.04036,0.5863 0.28125,0.22521 0.51381,0.48336 0.7031,0.76549 0.1882,0.28051 0.33554,0.58795 0.44255,0.91072 0.21429,0.64632 0.25848,1.32862 0.17259,1.9161 -0.0421,0.28797 -0.11248,0.53236 -0.19401,0.72415 -0.083,0.19513 -0.16296,0.30304 -0.21012,0.35675 -0.0483,0.0539 -0.12732,0.11759 -0.28275,0.18184 -0.15728,0.065 -0.37946,0.12271 -0.68232,0.15388 -0.61213,0.063 -1.44537,0.007 -2.51125,-0.20002 -1.05064,-0.20448 -2.27149,-0.5452 -3.64588,-1.01355 -1.36809,-0.46621 -2.87005,-1.05258 -4.48334,-1.74221 -1.71578,-0.73449 -3.59543,-1.32303 -5.47798,-1.69011 -1.88374,-0.36731 -3.79545,-0.51778 -5.56563,-0.35708 -0.88938,0.0807 -1.75166,0.24082 -2.56103,0.49641 -0.81204,0.25644 -1.57623,0.6108 -2.26005,1.0815 -0.68813,0.47368 -1.28791,1.06056 -1.76768,1.76989 -0.48178,0.7123 -0.82974,1.5291 -1.03308,2.44636 -0.30991,1.41586 -0.91759,2.62614 -1.70488,3.64277 -0.7991,1.03186 -1.78724,1.869 -2.84367,2.51313 -1.0734,0.65447 -2.20595,1.10289 -3.26676,1.35727 -1.08636,0.26051 -2.06644,0.31074 -2.83143,0.19814 -0.32034,-0.0455 -0.67527,-0.17683 -1.06999,-0.4005 -0.39851,-0.22582 -0.81265,-0.53143 -1.24317,-0.89548 -0.88088,-0.74487 -1.76921,-1.6809 -2.67201,-2.55298 -0.45923,-0.4436 -0.92199,-0.87026 -1.38806,-1.24384 -0.47278,-0.37896 -0.9592,-0.71163 -1.45818,-0.95151 -0.25402,-0.12211 -0.51449,-0.22174 -0.78074,-0.29071 -0.26938,-0.0698 -0.54453,-0.10814 -0.82359,-0.10652 -0.28263,0.002 -0.56322,0.0443 -0.8395,0.1316 -0.27889,0.0882 -0.54618,0.21959 -0.80193,0.39191 -0.8025,0.54678 -1.52243,0.8931 -2.18378,1.09856 -0.69687,0.21649 -1.34759,0.28223 -1.97404,0.24358 -0.67397,-0.0416 -1.332,-0.20474 -1.98849,-0.44719 -0.71379,-0.2636 -1.43126,-0.62401 -2.13779,-1.01985 -0.0822,-0.0456 -0.18431,-0.11013 -0.30491,-0.19315 -0.12197,-0.084 -0.2602,-0.18495 -0.41318,-0.30143 -0.31326,-0.23853 -0.68488,-0.5394 -1.10109,-0.88772 -0.87207,-0.7298 -1.95767,-1.68301 -3.11873,-2.7151 -2.68365,-2.38554 -5.83303,-5.23318 -8.72568,-7.76885 -4.13858,-3.62786 -7.28056,-6.23071 -9.89073,-8.24759 -0.70431,-0.54422 -1.33284,-1.0169 -1.89249,-1.42831 -1.06435,-0.78243 -1.95245,-1.39523 -2.69186,-1.88084 -2.08707,-1.37069 -3.34592,-1.95521 -3.92125,-2.21403 z"
         id="path1744"
         sodipodi:nodetypes="cssssssssssssssac" /><path
         style="fill:#000000;fill-rule:nonzero;stroke:none;stroke-width:0.264583px;stroke-linecap:butt;stroke-linejoin:miter;stroke-opacity:1"
         d="m 127.93425,128.96577 c -0.0844,-0.15767 -0.25167,-0.42687 -0.59281,-0.78694 -0.13116,-0.13844 -0.28381,-0.28631 -0.46791,-0.45109 -0.10253,-0.0918 -0.21274,-0.18858 -0.34064,-0.29846 -0.29289,-0.25164 -1.27739,-1.05424 -1.76674,-1.52605 -0.25886,-0.24958 -0.50888,-0.51709 -0.71937,-0.80006 -0.19562,-0.26296 -0.3519,-0.53218 -0.45527,-0.81037 -0.0972,-0.26155 -0.1457,-0.5236 -0.14289,-0.80244 0.003,-0.26414 0.0521,-0.55908 0.16873,-0.89679 0.0104,-0.0267 0.0319,-0.0877 0.0543,-0.15061 0.0247,-0.0693 0.0527,-0.14742 0.0884,-0.245 0.0703,-0.19247 0.15927,-0.43051 0.27104,-0.72129 0.22093,-0.5748 0.52071,-1.3289 0.90169,-2.24714 0.75308,-1.81503 1.81953,-4.26162 3.19199,-7.16327 2.74922,-5.81237 6.67347,-13.338788 11.69426,-21.202755 5.18501,-8.121185 11.31417,-16.249831 18.31064,-23.264301 6.55297,-6.569843 13.54366,-11.839184 20.92262,-15.407776 1.08927,-0.52679 2.20229,-1.023927 3.33873,-1.486536 8.821,-3.590659 15.77101,-5.937187 21.13367,-7.270185 2.50865,-0.623575 4.60452,-1.008988 6.35096,-1.209106 1.70944,-0.195877 3.04926,-0.210202 4.09937,-0.11188 1.03479,0.09689 1.76698,0.301128 2.29138,0.532555 0.51569,0.227589 0.85901,0.493888 1.10327,0.753284 0.25185,0.267447 0.42415,0.555032 0.56591,0.848117 0.0724,0.149637 0.13349,0.293425 0.19731,0.442408 0.0577,0.134764 0.13318,0.311692 0.21628,0.464305 -0.0301,-0.07823 -0.0367,-0.134723 -0.0382,-0.15552 -0.002,-0.02654 7.4e-4,-0.03455 0.003,-0.0328 0.006,0.0038 0.0111,0.04673 0.0127,0.10746 0.003,0.127656 -0.008,0.327947 -0.0341,0.588546 -0.0535,0.528166 -0.16573,1.274398 -0.32996,2.194726 -0.33985,1.904479 -0.89287,4.505734 -1.60045,7.498374 -1.59876,6.76185 -3.79949,14.765198 -6.22083,22.297163 -1.40626,4.374422 -2.82075,8.389519 -4.21403,11.983447 -1.69339,4.368038 -3.26169,7.873359 -4.68543,10.671319 -0.70616,1.38774 -1.36188,2.57235 -1.9646,3.58626 -1.09512,1.84222 -2.09654,3.26508 -3.00304,4.36918 -0.95263,1.16029 -1.79561,1.96258 -2.52423,2.52754 -1.08654,0.84249 -1.95035,1.17923 -2.52555,1.33487 0.57898,-0.13718 1.45804,-0.45055 2.57309,-1.27196 0.74795,-0.55098 1.61576,-1.33955 2.59943,-2.48749 0.93602,-1.09235 1.97146,-2.50358 3.10647,-4.33484 0.62471,-1.00793 1.3067,-2.18464 2.04394,-3.5642 1.48756,-2.783581 3.13127,-6.264585 4.91953,-10.615197 1.47158,-3.580183 2.96853,-7.573435 4.46902,-11.934529 2.59325,-7.537177 4.94458,-15.449484 6.74423,-22.230869 0.79284,-2.987526 1.43287,-5.587282 1.86392,-7.510536 0.20706,-0.923855 0.36779,-1.700362 0.46882,-2.270697 0.0494,-0.278643 0.0886,-0.531258 0.10954,-0.731254 0.0104,-0.09916 0.0184,-0.205005 0.0178,-0.305067 -2.9e-4,-0.05068 -0.003,-0.110596 -0.0111,-0.174822 -0.008,-0.05978 -0.024,-0.15124 -0.0642,-0.253816 0.006,-0.0273 -0.01,-0.154373 -0.0333,-0.301992 -0.0241,-0.151413 -0.0613,-0.353413 -0.11859,-0.576119 -0.11444,-0.444776 -0.31697,-1.007082 -0.71375,-1.578099 -0.39859,-0.573602 -0.97227,-1.125876 -1.78855,-1.579286 -0.81259,-0.451362 -1.83428,-0.787669 -3.11058,-0.971331 -1.28985,-0.185611 -2.84234,-0.215818 -4.71072,-0.05206 -1.91088,0.167488 -4.1492,0.537656 -6.76522,1.149466 -5.57831,1.304598 -12.70892,3.669753 -21.60894,7.283322 -1.20151,0.487851 -2.37601,1.01204 -3.52305,1.567098 -7.76626,3.758103 -15.01988,9.292183 -21.7121,16.088815 -7.14259,7.254025 -13.32943,15.626128 -18.49077,23.926406 -5.001,8.042439 -8.86435,15.737262 -11.51624,21.682082 -1.32544,2.97127 -2.33845,5.48309 -3.03673,7.36869 -0.35254,0.952 -0.62548,1.74607 -0.81954,2.36448 -0.0978,0.31162 -0.17607,0.5803 -0.23517,0.80507 -0.0297,0.11296 -0.0548,0.21582 -0.0754,0.30884 -0.0205,0.0928 -0.0372,0.17863 -0.0495,0.25816 -0.0824,0.56793 -0.0559,1.0844 0.0563,1.55036 0.11636,0.48315 0.32009,0.89288 0.56418,1.23987 0.25601,0.36392 0.56021,0.66427 0.86499,0.91485 0.3287,0.27026 0.68048,0.50058 1.00779,0.6958 0.82355,0.49119 1.56307,0.83416 2.08314,1.12844 0.14263,0.0807 0.26812,0.15534 0.38042,0.22621 0.2034,0.12836 0.37373,0.24627 0.5212,0.35833 0.38531,0.2928 0.58682,0.52689 0.69913,0.66868 z"
         id="path1748"
         sodipodi:nodetypes="csssc" /><path
         style="fill:#000000;fill-rule:nonzero;stroke:none;stroke-width:0.264583px;stroke-linecap:butt;stroke-linejoin:miter;stroke-opacity:1"
         d="m 116.80989,118.66841 c 2.9e-4,-0.0681 2e-4,-0.16889 4.9e-4,-0.23696 3.1e-4,-0.0899 9.7e-4,-0.20636 0.002,-0.35449 0.002,-0.24319 0.007,-0.58577 0.0173,-1.04737 0.0158,-0.73093 0.0462,-1.84214 0.10398,-3.34463 0.0582,-1.51238 0.14786,-3.51535 0.28363,-5.93087 0.0774,-1.37672 0.18075,-3.03157 0.3138,-4.92507 0.46269,-6.584408 1.47846,-18.824324 3.36996,-31.705369 0.81956,-5.581144 1.82097,-11.405852 3.04104,-17.029193 1.18031,-5.44008 2.55318,-10.635905 4.14717,-15.235432 1.59973,-4.616065 3.37636,-8.498042 5.33119,-11.432755 0.99424,-1.492607 2.00994,-2.70285 3.0397,-3.63636 1.05722,-0.958398 2.10601,-1.60436 3.14146,-1.983089 0.0917,-0.02492 0.11073,-0.0058 0.0599,0.0012 -0.0579,0.008 -0.1333,-0.0089 -0.1917,-0.03539 -0.0521,-0.02358 -0.0518,-0.03476 -0.0124,0.02205 0.0427,0.0616 0.10774,0.169729 0.18596,0.353349 0.0745,0.174832 0.14986,0.392198 0.22381,0.656403 0.0854,0.30496 0.16622,0.662661 0.24126,1.077075 0.14037,0.775177 0.25275,1.705977 0.34113,2.788245 0.17719,2.170047 0.24818,4.824842 0.28418,7.787696 0.0374,3.073207 0.0395,6.560299 0.0769,9.633504 0.0422,3.587306 0.12542,6.998033 0.30936,10.306689 0.20926,3.764075 0.52818,6.995673 0.96388,9.845565 0.2,1.308232 0.41733,2.487714 0.64614,3.560826 0.37965,1.780515 0.81879,3.349528 1.32632,4.72653 0.48153,1.30645 0.99672,2.363785 1.52418,3.228599 0.75643,1.24024 1.4859,1.994539 1.99073,2.435062 -0.49254,-0.454284 -1.21663,-1.209101 -1.9568,-2.455486 -0.51539,-0.867882 -1.01377,-1.930882 -1.46207,-3.242284 -0.4719,-1.38044 -0.86212,-2.959783 -1.16246,-4.74202 -0.18105,-1.07436 -0.33186,-2.259096 -0.44855,-3.566604 -0.25332,-2.838531 -0.33138,-6.084421 -0.25894,-9.811338 0.0638,-3.28194 0.23785,-6.677016 0.45758,-10.237562 0.20259,-3.283036 0.43697,-6.573618 0.60645,-9.624465 0.16453,-2.961726 0.26762,-5.713998 0.20552,-8.010409 -0.0311,-1.14936 -0.10389,-2.204617 -0.23557,-3.134097 -0.0708,-0.49951 -0.1598,-0.971798 -0.27175,-1.409515 -0.0962,-0.376221 -0.21473,-0.748126 -0.36306,-1.099285 -0.15186,-0.359531 -0.34571,-0.722934 -0.59883,-1.052856 -0.24633,-0.321073 -0.56525,-0.631523 -0.97434,-0.862251 -0.40703,-0.229573 -0.86316,-0.356833 -1.34631,-0.363818 -0.46258,-0.0067 -0.90097,0.09709 -1.3028,0.262611 -1.47128,0.588026 -2.82907,1.519618 -4.08035,2.733763 -1.21492,1.178866 -2.33416,2.628399 -3.36949,4.302693 -2.02562,3.275733 -3.75437,7.452624 -5.23799,12.215914 -1.48424,4.76532 -2.71541,10.094191 -3.7374,15.613858 -1.05767,5.712399 -1.8863,11.602339 -2.53619,17.228599 -1.51046,13.076554 -2.10808,25.175753 -2.3714,31.867161 -0.0745,1.89324 -0.13014,3.56168 -0.17359,4.93563 -0.0766,2.42313 -0.12189,4.42144 -0.1476,5.93892 -0.0256,1.50882 -0.0331,2.61136 -0.0324,3.34761 4.4e-4,0.46335 0.004,0.80335 0.009,1.04812 0.003,0.1486 0.007,0.26436 0.0109,0.35467 0.005,0.11207 0.0105,0.18633 0.0162,0.23661 z"
         id="path1750"
         sodipodi:nodetypes="csc" /><path
         style="fill:#000000;fill-rule:nonzero;stroke:none;stroke-width:0.264583px;stroke-linecap:butt;stroke-linejoin:miter;stroke-opacity:1"
         d="m 116.73888,123.9846 c 0,0 0.0976,0.61171 0.0976,0.61171 0.28431,-0.0453 0.67837,-0.0859 1.19536,-0.0863 0.41899,-3e-4 0.92112,0.0262 1.48786,0.10031 0.96494,0.1262 2.13014,0.39182 3.28948,0.89629 1.0334,0.44967 2.05547,1.08933 2.85371,1.97392 0.38265,0.42405 0.71444,0.90504 0.97116,1.4495 0.25403,0.53874 0.43514,1.14073 0.51871,1.81288 0.0482,0.40087 0.19739,0.80952 0.4184,1.22153 0.22197,0.41379 0.52177,0.84078 0.88083,1.27821 0.72395,0.88194 1.70867,1.82982 2.82903,2.81661 1.14207,1.00592 2.45566,2.07838 3.78265,3.15726 1.40593,1.14307 2.78741,2.26165 4.15802,3.43136 1.43732,1.22664 2.76472,2.42722 3.94605,3.62507 1.27934,1.29724 2.33251,2.53642 3.14401,3.73653 0.9169,1.35598 1.48567,2.60449 1.75016,3.76839 0.15067,0.66306 0.1996,1.286 0.16488,1.87221 -0.0399,0.67324 -0.18956,1.28831 -0.41171,1.8485 0.22207,-0.56 0.37459,-1.17437 0.41988,-1.84798 0.0394,-0.58664 -0.003,-1.21149 -0.1459,-1.87872 -0.25114,-1.17168 -0.80387,-2.43368 -1.70514,-3.81041 -0.79759,-1.21837 -1.83621,-2.47865 -3.10067,-3.80071 -1.16762,-1.22082 -2.48007,-2.44511 -3.9013,-3.69766 -1.35653,-1.19552 -2.71834,-2.33542 -4.10529,-3.50392 -1.30953,-1.10327 -2.59588,-2.19415 -3.70989,-3.2176 -1.09514,-1.00613 -2.03347,-1.95559 -2.70603,-2.82492 -0.33282,-0.4302 -0.59633,-0.83538 -0.78179,-1.2135 -0.18535,-0.37789 -0.28756,-0.71827 -0.30983,-1.02199 -0.0578,-0.73967 -0.22445,-1.41851 -0.47944,-2.03904 -0.25774,-0.62719 -0.60325,-1.18869 -1.00962,-1.68863 -0.84682,-1.04182 -1.9479,-1.80493 -3.05182,-2.34854 -1.2366,-0.60895 -2.49794,-0.9548 -3.53484,-1.13366 -0.61508,-0.10609 -1.16914,-0.15705 -1.6414,-0.17219 -0.58272,-0.0187 -1.05149,0.0165 -1.41066,0.0737 0,0 0.0976,0.61171 0.0976,0.61171 z"
         id="path1906" /><path
         style="fill:#000000;fill-rule:nonzero;stroke:none;stroke-width:0.264583px;stroke-linecap:butt;stroke-linejoin:miter;stroke-opacity:1"
         d="m 113.81171,129.46395 c 0,0 -0.90291,0.0584 -0.90291,0.0584 0.1181,1.82714 0.51024,3.78924 1.44889,5.45278 0.36734,0.65102 0.80407,1.23095 1.31106,1.73196 0.46744,0.46194 0.98023,0.84256 1.52862,1.14828 1.02463,0.57123 2.11214,0.84721 3.1451,0.9544 0.97845,0.10152 1.872,0.0479 2.54282,-0.0212 0.0428,-0.007 0.0838,-0.009 0.12462,-0.006 0.0412,0.004 0.0852,0.0132 0.13343,0.0316 0.0984,0.0374 0.21194,0.11033 0.343,0.23412 0.13129,0.12401 0.27018,0.28949 0.4207,0.49834 0.15124,0.20986 0.30984,0.45733 0.48058,0.73997 0.34722,0.57474 0.7403,1.28692 1.20868,2.09404 0.49079,0.84573 1.04879,1.76989 1.72721,2.77963 1.52562,2.27068 3.44153,4.64216 6.00191,7.11824 3.38897,3.27738 7.22788,6.07725 11.08292,8.47826 -3.84716,-2.3961 -7.67714,-5.24687 -10.99411,-8.56851 -2.50707,-2.51061 -4.36,-4.92572 -5.7908,-7.22213 -0.63656,-1.02167 -1.15361,-1.96102 -1.59946,-2.8204 -0.42644,-0.82198 -0.77675,-1.55118 -1.09123,-2.16309 -0.15366,-0.29901 -0.30093,-0.57375 -0.44519,-0.81561 -0.14273,-0.23929 -0.288,-0.45577 -0.44144,-0.63822 -0.15253,-0.18138 -0.32252,-0.34052 -0.51982,-0.45568 -0.0992,-0.0579 -0.20514,-0.10456 -0.31836,-0.13712 -0.11331,-0.0326 -0.23059,-0.0501 -0.35145,-0.0521 -0.66238,-0.0272 -1.47309,-0.0698 -2.33723,-0.24664 -0.90839,-0.18592 -1.78614,-0.50309 -2.5708,-1.02522 -0.41782,-0.27803 -0.79889,-0.6073 -1.14145,-0.99294 -0.3715,-0.41823 -0.69321,-0.8977 -0.96639,-1.44011 -0.70581,-1.4014 -1.01659,-3.08115 -1.12599,-4.77367 0,0 -0.90291,0.0584 -0.90291,0.0584 z"
         id="path1910"
         sodipodi:nodetypes="csc" /><path
         style="fill:#000000;fill-rule:nonzero;stroke:none;stroke-width:0.264583px;stroke-linecap:butt;stroke-linejoin:miter;stroke-opacity:1"
         d="m 109.43951,121.78441 c -0.19537,0.13958 -0.52399,0.41175 -0.82235,0.867 -0.12759,0.19469 -0.24079,0.40907 -0.33604,0.64245 -0.0583,0.14276 -0.11353,0.29732 -0.1619,0.46401 -0.1967,0.67783 -0.2817,1.58968 0.0429,2.53464 0.14075,0.40982 0.35891,0.81961 0.66999,1.18706 0.30088,0.3554 0.68456,0.66636 1.15202,0.8936 0.12854,0.0625 0.26267,0.11827 0.40218,0.16669 0.33705,0.117 0.72691,0.19864 1.16995,0.22089 0.551,0.0277 1.17601,-0.0369 1.87476,-0.23189 0.29361,-0.10322 0.65929,-0.24961 1.02815,-0.44711 0.37985,-0.20338 0.73804,-0.44749 1.04383,-0.74193 0.37695,-0.36296 0.60548,-0.7358 0.74803,-1.08889 0.0369,-0.0915 0.0666,-0.17796 0.0912,-0.25789 0.15285,-0.49796 0.12168,-0.94965 0.10119,-1.1759 -0.0272,0.23903 -0.10569,0.65442 -0.34457,1.07214 -0.0375,0.0656 -0.0819,0.1342 -0.13382,0.20394 -0.20011,0.2685 -0.47982,0.50994 -0.86042,0.70724 -0.30982,0.1606 -0.65203,0.27455 -1.00755,0.36059 -0.34907,0.0845 -0.68503,0.136 -0.97135,0.18195 -0.59193,0.13739 -1.08743,0.16561 -1.4956,0.13799 -0.32824,-0.0222 -0.60708,-0.081 -0.84232,-0.15355 -0.098,-0.0302 -0.19238,-0.064 -0.28317,-0.10108 -0.32734,-0.13361 -0.61498,-0.31234 -0.86485,-0.52718 -0.26034,-0.22384 -0.48045,-0.48766 -0.65811,-0.77879 -0.41261,-0.67613 -0.56362,-1.44077 -0.51504,-2.09828 0.0117,-0.15802 0.0346,-0.30779 0.0666,-0.44774 0.0523,-0.22847 0.12757,-0.44479 0.22168,-0.64585 0.22189,-0.47406 0.50768,-0.77699 0.68468,-0.94411 z"
         id="path1980"
         sodipodi:nodetypes="csc" /><path
         style="fill:#000000;fill-rule:nonzero;stroke:none;stroke-width:0.264583px;stroke-linecap:butt;stroke-linejoin:miter;stroke-opacity:1"
         d="m 111.2508,123.00186 c -0.14612,-0.23511 -0.41097,-0.64849 -0.56503,-1.09617 -0.0544,-0.15799 -0.0943,-0.31789 -0.1128,-0.47648 -0.0159,-0.13592 -0.0189,-0.28072 -2.2e-4,-0.428 0.0164,-0.12892 0.0492,-0.25865 0.10341,-0.3852 0.0495,-0.11547 0.11556,-0.22537 0.19944,-0.32735 0.1552,-0.18868 0.36023,-0.33682 0.60161,-0.44453 0.22564,-0.10068 0.47588,-0.16292 0.73419,-0.19412 0.25446,-0.0307 0.51478,-0.0311 0.76427,-0.01 0.25655,0.0222 0.50059,0.0675 0.71691,0.12671 0.0445,0.0122 0.0879,0.025 0.12999,0.0383 0.16585,0.0524 0.32632,0.11804 0.46818,0.19578 0.15903,0.0876 0.29675,0.20124 0.40733,0.33873 0.10818,0.13451 0.18452,0.28451 0.23252,0.44237 0.0482,0.15865 0.0668,0.32188 0.064,0.4821 -0.003,0.16756 -0.029,0.33301 -0.0691,0.49083 -0.0724,0.28496 -0.19148,0.54947 -0.31099,0.77115 -0.0386,0.0716 -0.0802,0.14269 -0.12439,0.21296 -0.27504,0.43749 -0.59612,0.76083 -0.76968,0.93188 0.13789,-0.20816 0.35976,-0.58938 0.5277,-1.05125 0.0267,-0.0734 0.051,-0.146 0.0731,-0.21775 0.0693,-0.22534 0.11866,-0.47415 0.12245,-0.71703 0.002,-0.13353 -0.01,-0.25878 -0.0361,-0.37222 -0.0251,-0.10831 -0.0622,-0.20068 -0.10847,-0.27813 -0.0454,-0.0759 -0.099,-0.13651 -0.15857,-0.18611 -0.0605,-0.0503 -0.13181,-0.0932 -0.21534,-0.12909 -0.0978,-0.044 -0.21538,-0.0877 -0.34865,-0.12901 -0.0332,-0.0103 -0.0677,-0.0205 -0.10337,-0.0305 -0.17441,-0.0488 -0.37318,-0.0919 -0.584,-0.12021 -0.20515,-0.0276 -0.41389,-0.0401 -0.61402,-0.0326 -0.2034,0.008 -0.38804,0.0357 -0.54814,0.0839 -0.16893,0.0509 -0.30506,0.12237 -0.41139,0.21187 -0.0582,0.049 -0.10874,0.10434 -0.15191,0.16688 -0.0476,0.0689 -0.086,0.14632 -0.1156,0.23258 -0.034,0.0992 -0.0548,0.20599 -0.0654,0.31757 -0.0123,0.12997 -0.0134,0.27059 -0.002,0.42284 0.0329,0.44103 0.16622,0.88963 0.26996,1.15884 z"
         id="path1984"
         sodipodi:nodetypes="cac" /><path
         style="fill:#000000;fill-rule:nonzero;stroke:none;stroke-width:0.264583px;stroke-linecap:butt;stroke-linejoin:miter;stroke-opacity:1"
         d="m 108.16792,123.91635 c -0.0802,-0.0763 -0.21224,-0.20768 -0.33686,-0.42281 -0.0888,-0.15335 -0.16681,-0.33706 -0.22205,-0.55255 -0.0652,-0.25427 -0.0921,-0.5278 -0.0805,-0.8002 0.007,-0.16642 0.0263,-0.34234 0.0592,-0.52609 0.16076,-0.89743 0.63322,-1.87993 1.36082,-2.63525 0.0487,-0.0506 0.0982,-0.0997 0.14844,-0.14742 0.31579,-0.29987 0.68389,-0.55621 1.08679,-0.7425 0.47684,-0.22047 0.96844,-0.32761 1.45162,-0.32659 0.3064,6.5e-4 0.59494,0.0445 0.86541,0.1175 0.20442,0.0552 0.41168,0.13336 0.62009,0.23728 0.65061,0.32443 1.13308,0.81147 1.41661,1.12776 -0.33419,-0.2828 -0.86791,-0.66611 -1.52374,-0.85687 -0.20558,-0.0598 -0.40094,-0.0944 -0.58549,-0.11014 -0.24467,-0.0209 -0.4923,-0.006 -0.73986,0.0472 -0.38836,0.0829 -0.75527,0.25337 -1.10193,0.48953 -0.29504,0.20099 -0.56457,0.44195 -0.81453,0.70056 -0.0398,0.0412 -0.0793,0.0833 -0.11866,0.12631 -0.59567,0.65229 -1.04577,1.4261 -1.30937,2.16779 -0.053,0.14921 -0.0967,0.29202 -0.13242,0.42767 -0.0588,0.22337 -0.10765,0.44359 -0.13497,0.66603 -0.023,0.18723 -0.0284,0.35841 -0.0169,0.51632 0.0162,0.22346 0.0644,0.39075 0.10831,0.49644 z"
         id="path1988"
         sodipodi:nodetypes="cc" /><path
         style="fill:#000000;fill-rule:nonzero;stroke:none;stroke-width:0.264583px;stroke-linecap:butt;stroke-linejoin:miter;stroke-opacity:1"
         d="m 110.85995,118.2792 c 0.0861,-0.76174 0.0795,-1.53534 -0.10276,-2.25998 -0.14714,-0.58518 -0.40241,-1.1144 -0.78655,-1.58816 -0.33988,-0.4192 -0.76556,-0.77699 -1.2741,-1.09509 -0.47023,-0.29413 -0.98853,-0.54064 -1.54576,-0.77346 -0.52381,-0.21886 -1.06989,-0.41984 -1.59546,-0.62959 -0.50815,-0.20279 -0.99577,-0.41392 -1.419,-0.66018 -0.41672,-0.24248 -0.76309,-0.5144 -1.01278,-0.84072 -0.12351,-0.16142 -0.2231,-0.3358 -0.2964,-0.52667 -0.0732,-0.19076 -0.12104,-0.40009 -0.13928,-0.63248 -0.0808,-1.00924 0.0357,-1.80927 0.24664,-2.44395 0.22496,-0.67692 0.56079,-1.17611 0.89405,-1.54644 0.39054,-0.43398 0.81348,-0.72901 1.12313,-0.92141 0.20289,-0.12606 0.39535,-0.1492 0.52736,-0.30308 0.14615,-0.17038 0.34822,-0.42993 0.24281,-0.62811 -0.10697,-0.20111 -0.44161,-0.18963 -0.66626,-0.15195 -0.22516,0.0378 -0.35415,0.20278 -0.58156,0.36179 -0.34109,0.23851 -0.80843,0.61415 -1.23003,1.15642 -0.36175,0.4653 -0.70484,1.07141 -0.91,1.85599 -0.19166,0.73298 -0.26051,1.61152 -0.12406,2.67095 0.0351,0.27558 0.1059,0.52586 0.20806,0.75369 0.10211,0.22773 0.23434,0.43033 0.3902,0.612 0.3125,0.36427 0.71946,0.64378 1.16783,0.87609 0.456,0.23629 0.97031,0.43127 1.48765,0.61269 0.53856,0.18887 1.08981,0.36706 1.61656,0.56342 0.56,0.20876 1.07935,0.43232 1.551,0.70375 0.50979,0.29338 0.93999,0.62954 1.28674,1.03042 0.39233,0.45357 0.6599,0.96996 0.81771,1.54972 0.19557,0.71838 0.21044,1.49196 0.12426,2.25434 z"
         id="path1996"
         sodipodi:nodetypes="cscsssssscsssaaassscssssssssc" /><path
         style="fill:#000000;fill-rule:nonzero;stroke:none;stroke-width:0.264583px;stroke-linecap:butt;stroke-linejoin:miter;stroke-opacity:1"
         d="m 109.30208,118.67554 c -0.83006,-2.42125 -2.24211,-5.14829 -4.68867,-8.06168 -1.85033,-2.20339 -4.06018,-4.23947 -6.554448,-6.17293 -2.225265,-1.72494 -4.408096,-3.16408 -6.395335,-4.45141 -0.927868,-0.601071 -1.781745,-1.149427 -2.49262,-1.631842 -0.353756,-0.240068 -0.673148,-0.464475 -0.952766,-0.673522 -0.279484,-0.208948 -0.516373,-0.400431 -0.706908,-0.574986 -0.782776,-0.716356 -1.238334,-1.404995 -1.487963,-2.034659 -0.261444,-0.659456 -0.302129,-1.267121 -0.246827,-1.797123 0.06283,-0.602152 0.255096,-1.145347 0.444536,-1.57827 0.194779,-0.445125 0.620497,-0.710227 0.570427,-1.128836 -0.02555,-0.213614 -0.229029,-0.389666 -0.418732,-0.491139 -0.190152,-0.101712 -0.455076,-0.182571 -0.642474,-0.07587 -0.40597,0.231159 -0.375734,0.733518 -0.568964,1.280812 -0.181175,0.513154 -0.360193,1.18723 -0.370489,1.940089 -0.0092,0.671244 0.114986,1.413965 0.495782,2.181662 0.360539,0.726858 0.940874,1.456195 1.821807,2.171534 0.220141,0.178926 0.482695,0.369282 0.779254,0.57077 0.297531,0.202148 0.632764,0.417841 0.99841,0.64667 0.730033,0.456868 1.613117,0.985599 2.550528,1.556139 2.013743,1.22563 4.229333,2.61605 6.474312,4.28495 2.51967,1.8731 4.76052,3.86649 6.63623,6.03442 2.48099,2.86749 3.92527,5.58516 4.75491,8.00522 z"
         id="path2000"
         sodipodi:nodetypes="cscssscsssaaassscsssssc" /><path
         style="fill:#000000;fill-rule:nonzero;stroke:none;stroke-width:0.264583px;stroke-linecap:butt;stroke-linejoin:miter;stroke-opacity:1"
         d="m 123.89768,137.84988 c 0.54573,-0.13229 1.22823,-0.33079 1.87339,-0.78789 0.48299,-0.3422 0.87857,-0.78329 1.18649,-1.32275 0.3038,-0.53225 0.4884,-1.10178 0.59781,-1.62633 0.14168,-0.67926 0.15636,-1.27589 0.13178,-1.58898 0,0 -0.59975,0.0471 -0.59975,0.0471 0,0 -0.59975,0.0471 -0.59975,0.0471 0.0194,0.24744 0.10256,0.82111 0.10752,1.39251 0.004,0.46262 -0.0378,0.97918 -0.18892,1.48786 -0.15269,0.51383 -0.4069,0.98484 -0.78961,1.38303 -0.51692,0.53783 -1.1691,0.83511 -1.71896,0.96839 z"
         id="path2008" /><path
         style="fill:#000000;fill-rule:nonzero;stroke:none;stroke-width:0.264583px;stroke-linecap:butt;stroke-linejoin:miter;stroke-opacity:1"
         d="m 88.791597,147.83544 c 1.02388,-1.76651 1.801263,-3.44011 2.265514,-5.10275 0.178132,-0.63795 0.294991,-1.2158 0.386047,-1.78142 0.08283,-0.51453 0.139998,-0.99807 0.209448,-1.45871 0.06566,-0.4355 0.143347,-0.85207 0.273308,-1.2618 0.125325,-0.39511 0.300658,-0.78924 0.568925,-1.20549 0.26264,-0.40751 0.617043,-0.84059 1.110052,-1.32438 0.488244,-0.47911 1.110952,-1.00655 1.913267,-1.60802 3.29367,-2.46955 5.988162,-3.91095 7.865322,-4.9144 1.13403,-0.6062 1.95331,-1.04206 2.68971,-1.51025 0.41678,-0.26499 0.76565,-0.51547 1.06866,-0.76651 0.37248,-0.30861 0.65628,-0.60256 0.8794,-0.88065 0,0 -0.46924,-0.37647 -0.46924,-0.37647 0,0 -0.46924,-0.37647 -0.46924,-0.37647 -0.17575,0.21906 -0.40026,0.46592 -0.70763,0.74165 -0.25151,0.22563 -0.55035,0.46357 -0.92489,0.72887 -0.67069,0.4751 -1.42946,0.93342 -2.54247,1.59949 -1.83168,1.09617 -4.509896,2.68253 -7.757972,5.2791 -0.798909,0.63856 -1.421393,1.20673 -1.908698,1.72942 -0.492836,0.52862 -0.84555,1.00878 -1.101947,1.46483 -0.262216,0.4664 -0.421482,0.90388 -0.525749,1.33213 -0.107279,0.44062 -0.157964,0.88018 -0.19669,1.32087 -0.04123,0.46918 -0.07094,0.95192 -0.128518,1.46563 -0.06315,0.56343 -0.156146,1.14265 -0.312535,1.78124 -0.406908,1.66154 -1.163423,3.36315 -2.184074,5.12409 z"
         id="path2012" /><path
         style="fill:#000000;fill-rule:nonzero;stroke:none;stroke-width:0.264583px;stroke-linecap:butt;stroke-linejoin:miter;stroke-opacity:1"
         d="m 155.06344,74.096265 c 2.19586,-0.891691 4.72904,-1.741197 7.02106,-2.048406 0.90405,-0.121173 1.75468,-0.156046 2.53058,-0.08527 0.71593,0.0653 1.35699,0.219525 1.91442,0.469644 0.52697,0.236451 0.97282,0.555687 1.33763,0.958657 0.35127,0.388014 0.62716,0.853336 0.82932,1.397192 0.1977,0.531846 0.32438,1.137455 0.38236,1.815891 0.0573,0.671051 0.0471,1.408874 -0.026,2.209099 -0.0165,0.17516 -0.0601,0.37546 -0.1332,0.601567 -0.073,0.225951 -0.17431,0.473939 -0.3036,0.743366 -0.25953,0.540812 -0.62709,1.157853 -1.09118,1.841648 -0.93746,1.381245 -2.25242,3.010998 -3.81504,4.792325 -1.59677,1.820257 -3.44782,3.793881 -5.40458,5.809003 -2.02701,2.087466 -4.18405,4.236441 -6.29867,6.31222 -4.6684,4.582674 -9.14247,8.837974 -12.51684,12.121394 -2.00656,1.95248 -3.58532,3.51744 -4.84275,4.81368 -0.71114,0.73309 -1.29423,1.35438 -1.77057,1.88426 -0.54593,0.60731 -0.94493,1.08713 -1.23197,1.4711 0,0 0.48184,0.3602 0.48184,0.3602 0,0 0.48184,0.3602 0.48184,0.3602 0.25862,-0.34596 0.63051,-0.79885 1.15972,-1.39528 0.46045,-0.51894 1.02799,-1.13307 1.72662,-1.8649 1.2372,-1.29599 2.7902,-2.86197 4.77906,-4.83061 3.33974,-3.30581 7.77898,-7.60062 12.41269,-12.234071 2.09844,-2.098333 4.24071,-4.27389 6.25264,-6.389289 1.9419,-2.041773 3.78128,-4.047242 5.36682,-5.901937 1.54965,-1.812715 2.86288,-3.488378 3.79825,-4.923203 0.46315,-0.710456 0.83649,-1.366143 1.10047,-1.953824 0.1318,-0.293399 0.23733,-0.572033 0.31312,-0.833857 0.0757,-0.261332 0.12272,-0.50942 0.13539,-0.741028 0.0438,-0.831066 0.023,-1.602377 -0.0693,-2.306959 -0.0933,-0.712676 -0.25919,-1.352956 -0.50217,-1.915942 -0.24887,-0.576647 -0.5758,-1.065639 -0.97994,-1.466601 -0.41927,-0.415975 -0.91511,-0.730777 -1.47992,-0.953285 -0.59623,-0.234882 -1.26518,-0.365323 -1.99498,-0.406628 -0.79123,-0.04478 -1.64964,0.01549 -2.55422,0.157933 -2.29227,0.360959 -4.81423,1.240501 -7.00892,2.131716 z"
         id="path2016"
         sodipodi:nodetypes="csc" /><path
         style="fill:#000000;fill-rule:nonzero;stroke:none;stroke-width:0.264583px;stroke-linecap:butt;stroke-linejoin:miter;stroke-opacity:1"
         d="m 132.07431,128.46753 c 2.77395,-1.0142 7.76719,-2.84333 13.06214,-3.98246 0.80723,-0.17367 1.65061,-0.33903 2.51696,-0.48822 3.70853,-0.63864 7.42206,-0.90911 10.6205,-0.53071 1.34884,0.15958 2.55357,0.4287 3.59902,0.80353 1.01564,0.36414 1.86623,0.82287 2.54636,1.36237 0.6872,0.5451 1.18826,1.16326 1.50924,1.82619 0.33742,0.69688 0.46189,1.41401 0.42422,2.1056 -0.003,0.0643 -0.009,0.1278 -0.0162,0.19055 -0.0362,0.30977 -0.12105,0.60896 -0.25744,0.89294 -0.15802,0.32902 -0.37958,0.62589 -0.65694,0.89086 -0.26914,0.25711 -0.58863,0.48221 -0.95087,0.67934 -0.35641,0.19396 -0.75657,0.36215 -1.1953,0.50773 -0.87379,0.28994 -1.90749,0.49276 -3.06664,0.62714 -1.18881,0.13782 -2.50457,0.2027 -3.89407,0.21342 -3.20596,0.0247 -6.76693,-0.24043 -9.78825,-0.53306 -0.91237,-0.0884 -1.7801,-0.17976 -2.57106,-0.26663 -3.84601,-0.42237 -7.44122,-0.94064 -8.95928,-1.16129 1.51618,0.17776 5.13975,0.59271 8.98375,0.9051 0.79235,0.0644 1.66046,0.12881 2.57356,0.1871 3.0282,0.19332 6.57466,0.32158 9.74089,0.16221 1.37135,-0.069 2.65157,-0.19081 3.7927,-0.37852 1.11622,-0.1836 2.06877,-0.42531 2.83848,-0.72731 0.38507,-0.15108 0.71641,-0.31415 0.99623,-0.48735 0.28438,-0.17602 0.50958,-0.35878 0.68373,-0.54465 0.17802,-0.18999 0.30175,-0.3821 0.38358,-0.57481 0.0705,-0.16609 0.1128,-0.33931 0.12898,-0.52183 0.003,-0.0374 0.006,-0.0756 0.007,-0.1148 0.0146,-0.49716 -0.0835,-1.00238 -0.32964,-1.49665 -0.23514,-0.47217 -0.61063,-0.94421 -1.16648,-1.38645 -0.5528,-0.43982 -1.2744,-0.84226 -2.18491,-1.17906 -0.93735,-0.34673 -2.04525,-0.61295 -3.32148,-0.78506 -3.04729,-0.41095 -6.62827,-0.23312 -10.32293,0.27705 -0.85809,0.11849 -1.69495,0.25096 -2.49967,0.38972 -5.34379,0.92148 -10.32687,2.25359 -13.22581,3.13801 z"
         id="path2036" /></g><text
       xml:space="preserve"
       style="font-style:normal;font-weight:normal;font-size:10.5833px;line-height:1.25;font-family:sans-serif;fill:#000000;fill-opacity:1;stroke:none;stroke-width:0.264583"
       x="47.548386"
       y="159.32257"
       id="text2140"><tspan
         sodipodi:role="line"
         style="stroke-width:0.264583"
         x="47.548386"
         y="159.32257"
         id="tspan2192">LEPIDOPTERA</tspan><tspan
         sodipodi:role="line"
         style="stroke-width:0.264583"
         x="47.548386"
         y="172.5517"
         id="tspan2198">PAPILIONIDAE</tspan></text><text
       xml:space="preserve"
       style="font-style:normal;font-weight:normal;font-size:10.5833px;line-height:1.25;font-family:sans-serif;fill:#000000;fill-opacity:1;stroke:none;stroke-width:0.264583"
       x="136.99623"
       y="194.95619"
       id="text2204"><tspan
         sodipodi:role="line"
         id="tspan2202"
         style="stroke-width:0.264583"
         x="136.99623"
         y="194.95619">字型非商用</tspan></text></g></svg>
